%FSDAX24Y24*%
%MOMM*%
%SFA1B1*%

%IPPOS*%
%ADD38C,0.051000*%
%LN_4x40lcd_arduino_nano_piggyboard_(rev1.4)_-_2xpanel-1*%
%LPD*%
G54D38*
X325699Y406400D02*
X334699D01*
X330200Y401899D02*
Y410899D01*
X325699Y381000D02*
X334699D01*
X330200Y376499D02*
Y385499D01*
X681299Y279400D02*
X690299D01*
X685800Y274899D02*
Y283899D01*
X706699Y279400D02*
X715699D01*
X711200Y274899D02*
Y283899D01*
X681299Y304800D02*
X690299D01*
X685800Y300299D02*
Y309299D01*
X706699Y304800D02*
X715699D01*
X711200Y300299D02*
Y309299D01*
X681299Y330200D02*
X690299D01*
X685800Y325699D02*
Y334699D01*
X706699Y330200D02*
X715699D01*
X711200Y325699D02*
Y334699D01*
X681299Y355600D02*
X690299D01*
X685800Y351099D02*
Y360099D01*
X706699Y355600D02*
X715699D01*
X711200Y351099D02*
Y360099D01*
X681299Y381000D02*
X690299D01*
X685800Y376499D02*
Y385499D01*
X706699Y381000D02*
X715699D01*
X711200Y376499D02*
Y385499D01*
X681299Y406400D02*
X690299D01*
X685800Y401899D02*
Y410899D01*
X706699Y406400D02*
X715699D01*
X711200Y401899D02*
Y410899D01*
X681299Y431800D02*
X690299D01*
X685800Y427299D02*
Y436299D01*
X706699Y431800D02*
X715699D01*
X711200Y427299D02*
Y436299D01*
X681299Y457200D02*
X690299D01*
X685800Y452699D02*
Y461699D01*
X706699Y457200D02*
X715699D01*
X711200Y452699D02*
Y461699D01*
X325699Y355600D02*
X334699D01*
X330200Y351099D02*
Y360099D01*
X325699Y330200D02*
X334699D01*
X330200Y325699D02*
Y334699D01*
X275590Y292100D02*
X283210D01*
X279400Y288290D02*
Y295910D01*
X300990Y292100D02*
X308610D01*
X304800Y288290D02*
Y295910D01*
X326390Y292100D02*
X334010D01*
X330200Y288290D02*
Y295910D01*
X351790Y292100D02*
X359410D01*
X355600Y288290D02*
Y295910D01*
X377190Y292100D02*
X384810D01*
X381000Y288290D02*
Y295910D01*
X402590Y292100D02*
X410210D01*
X406400Y288290D02*
Y295910D01*
X427990Y292100D02*
X435610D01*
X431800Y288290D02*
Y295910D01*
X453390Y292100D02*
X461010D01*
X457200Y288290D02*
Y295910D01*
X478790Y292100D02*
X486410D01*
X482600Y288290D02*
Y295910D01*
X504190Y292100D02*
X511810D01*
X508000Y288290D02*
Y295910D01*
X529590Y292100D02*
X537210D01*
X533400Y288290D02*
Y295910D01*
X554990Y292100D02*
X562610D01*
X558800Y288290D02*
Y295910D01*
X580390Y292100D02*
X588010D01*
X584200Y288290D02*
Y295910D01*
X605790Y292100D02*
X613410D01*
X609600Y288290D02*
Y295910D01*
X631190Y292100D02*
X638810D01*
X635000Y288290D02*
Y295910D01*
X631190Y444500D02*
X638810D01*
X635000Y440690D02*
Y448310D01*
X605790Y444500D02*
X613410D01*
X609600Y440690D02*
Y448310D01*
X580390Y444500D02*
X588010D01*
X584200Y440690D02*
Y448310D01*
X554990Y444500D02*
X562610D01*
X558800Y440690D02*
Y448310D01*
X529590Y444500D02*
X537210D01*
X533400Y440690D02*
Y448310D01*
X504190Y444500D02*
X511810D01*
X508000Y440690D02*
Y448310D01*
X478790Y444500D02*
X486410D01*
X482600Y440690D02*
Y448310D01*
X453390Y444500D02*
X461010D01*
X457200Y440690D02*
Y448310D01*
X427990Y444500D02*
X435610D01*
X431800Y440690D02*
Y448310D01*
X402590Y444500D02*
X410210D01*
X406400Y440690D02*
Y448310D01*
X377190Y444500D02*
X384810D01*
X381000Y440690D02*
Y448310D01*
X351790Y444500D02*
X359410D01*
X355600Y440690D02*
Y448310D01*
X326390Y444500D02*
X334010D01*
X330200Y440690D02*
Y448310D01*
X300990Y444500D02*
X308610D01*
X304800Y440690D02*
Y448310D01*
X275590Y444500D02*
X283210D01*
X279400Y440690D02*
Y448310D01*
X325699Y646399D02*
X334699D01*
X330200Y641899D02*
Y650899D01*
X325699Y620999D02*
X334699D01*
X330200Y616499D02*
Y625499D01*
X681299Y519399D02*
X690299D01*
X685800Y514899D02*
Y523899D01*
X706699Y519399D02*
X715699D01*
X711200Y514899D02*
Y523899D01*
X681299Y544799D02*
X690299D01*
X685800Y540299D02*
Y549299D01*
X706699Y544799D02*
X715699D01*
X711200Y540299D02*
Y549299D01*
X681299Y570199D02*
X690299D01*
X685800Y565699D02*
Y574699D01*
X706699Y570199D02*
X715699D01*
X711200Y565699D02*
Y574699D01*
X681299Y595599D02*
X690299D01*
X685800Y591099D02*
Y600099D01*
X706699Y595599D02*
X715699D01*
X711200Y591099D02*
Y600099D01*
X681299Y620999D02*
X690299D01*
X685800Y616499D02*
Y625499D01*
X706699Y620999D02*
X715699D01*
X711200Y616499D02*
Y625499D01*
X681299Y646399D02*
X690299D01*
X685800Y641899D02*
Y650899D01*
X706699Y646399D02*
X715699D01*
X711200Y641899D02*
Y650899D01*
X681299Y671799D02*
X690299D01*
X685800Y667299D02*
Y676299D01*
X706699Y671799D02*
X715699D01*
X711200Y667299D02*
Y676299D01*
X681299Y697199D02*
X690299D01*
X685800Y692699D02*
Y701699D01*
X706699Y697199D02*
X715699D01*
X711200Y692699D02*
Y701699D01*
X325699Y595599D02*
X334699D01*
X330200Y591099D02*
Y600099D01*
X325699Y570199D02*
X334699D01*
X330200Y565699D02*
Y574699D01*
X275590Y532099D02*
X283210D01*
X279400Y528289D02*
Y535909D01*
X300990Y532099D02*
X308610D01*
X304800Y528289D02*
Y535909D01*
X326390Y532099D02*
X334010D01*
X330200Y528289D02*
Y535909D01*
X351790Y532099D02*
X359410D01*
X355600Y528289D02*
Y535909D01*
X377190Y532099D02*
X384810D01*
X381000Y528289D02*
Y535909D01*
X402590Y532099D02*
X410210D01*
X406400Y528289D02*
Y535909D01*
X427990Y532099D02*
X435610D01*
X431800Y528289D02*
Y535909D01*
X453390Y532099D02*
X461010D01*
X457200Y528289D02*
Y535909D01*
X478790Y532099D02*
X486410D01*
X482600Y528289D02*
Y535909D01*
X504190Y532099D02*
X511810D01*
X508000Y528289D02*
Y535909D01*
X529590Y532099D02*
X537210D01*
X533400Y528289D02*
Y535909D01*
X554990Y532099D02*
X562610D01*
X558800Y528289D02*
Y535909D01*
X580390Y532099D02*
X588010D01*
X584200Y528289D02*
Y535909D01*
X605790Y532099D02*
X613410D01*
X609600Y528289D02*
Y535909D01*
X631190Y532099D02*
X638810D01*
X635000Y528289D02*
Y535909D01*
X631190Y684499D02*
X638810D01*
X635000Y680689D02*
Y688309D01*
X605790Y684499D02*
X613410D01*
X609600Y680689D02*
Y688309D01*
X580390Y684499D02*
X588010D01*
X584200Y680689D02*
Y688309D01*
X554990Y684499D02*
X562610D01*
X558800Y680689D02*
Y688309D01*
X529590Y684499D02*
X537210D01*
X533400Y680689D02*
Y688309D01*
X504190Y684499D02*
X511810D01*
X508000Y680689D02*
Y688309D01*
X478790Y684499D02*
X486410D01*
X482600Y680689D02*
Y688309D01*
X453390Y684499D02*
X461010D01*
X457200Y680689D02*
Y688309D01*
X427990Y684499D02*
X435610D01*
X431800Y680689D02*
Y688309D01*
X402590Y684499D02*
X410210D01*
X406400Y680689D02*
Y688309D01*
X377190Y684499D02*
X384810D01*
X381000Y680689D02*
Y688309D01*
X351790Y684499D02*
X359410D01*
X355600Y680689D02*
Y688309D01*
X326390Y684499D02*
X334010D01*
X330200Y680689D02*
Y688309D01*
X300990Y684499D02*
X308610D01*
X304800Y680689D02*
Y688309D01*
X275590Y684499D02*
X283210D01*
X279400Y680689D02*
Y688309D01*
M02*