%FSDAX24Y24*%
%MOMM*%
%SFA1B1*%

%IPPOS*%
%AMD20*
4,1,8,-0.500380,0.160020,-0.500380,-0.160020,-0.337820,-0.322580,0.337820,-0.322580,0.500380,-0.160020,0.500380,0.160020,0.337820,0.322580,-0.337820,0.322580,-0.500380,0.160020,0.0*
1,1,0.322000,-0.337820,0.160020*
1,1,0.322000,-0.337820,-0.160020*
1,1,0.322000,0.337820,-0.160020*
1,1,0.322000,0.337820,0.160020*
%
%ADD15C,0.253999*%
%ADD16R,1.499997X1.499997*%
%ADD17C,1.499997*%
%ADD18R,1.523997X1.523997*%
%ADD19C,1.523997*%
G04~CAMADD=20~8~0.0~0.0~253.5~393.7~63.4~0.0~15~0.0~0.0~0.0~0.0~0~0.0~0.0~0.0~0.0~0~0.0~0.0~0.0~90.0~394.0~254.0*
%ADD20D20*%
%ADD35C,0.127000*%
%ADD36C,0.507999*%
%ADD40C,1.015998*%
%ADD41C,2.031996*%
%ADD42C,4.063992*%
%ADD43C,8.127984*%
%LN_4x40lcd_arduino_nano_piggyboard_(rev1.4)_-_2xpanel-1*%
%LPD*%
G54D35*
X735965Y254634D02*
X254634D01*
Y481965*
X735965*
Y254634*
G54D15*
X734695Y255904D02*
X255904D01*
Y480695*
X734695*
Y255904*
G54D36*
X732155Y258444D02*
X258444D01*
Y478155*
X732155*
Y258444*
G54D40*
X727075Y263523D02*
X263523D01*
Y473075*
X727075*
Y263523*
G54D41*
X716915Y273683D02*
X273683D01*
Y462915*
X716915*
Y273683*
G54D42*
X696595Y294003D02*
X294003D01*
Y442595*
X696595*
Y294003*
G54D43*
X655955Y334643D02*
X334643D01*
Y401955*
X655955*
Y334643*
G54D35*
X735965Y494634D02*
X254634D01*
Y721964*
X735965*
Y494634*
G54D15*
X734695Y495904D02*
X255904D01*
Y720694*
X734695*
Y495904*
G54D36*
X732155Y498444D02*
X258444D01*
Y718154*
X732155*
Y498444*
G54D40*
X727075Y503524D02*
X263523D01*
Y713074*
X727075*
Y503524*
G54D41*
X716915Y513683D02*
X273683D01*
Y702914*
X716915*
Y513683*
G54D42*
X696595Y534003D02*
X294003D01*
Y682594*
X696595*
Y534003*
G54D43*
X655955Y574643D02*
X334643D01*
Y641954*
X655955*
Y574643*
%LN_4x40lcd_arduino_nano_piggyboard_(rev1.4)_-_2xpanel-2*%
%LPC*%
G36*
X584200Y302349D02*
X581549Y301999D01*
X579079Y300969*
X576949Y299349*
X575329Y297219*
X574299Y294749*
X573949Y292100*
X574299Y289449*
X575329Y286979*
X576949Y284849*
X579079Y283229*
X581549Y282199*
X584200Y281849*
X586849Y282199*
X589319Y283229*
X591449Y284849*
X593069Y286979*
X594099Y289449*
X594449Y292100*
X594099Y294749*
X593069Y297219*
X591449Y299349*
X589319Y300969*
X586849Y301999*
X584200Y302349*
G37*
G36*
X558800D02*
X556149Y301999D01*
X553679Y300969*
X551549Y299349*
X549929Y297219*
X548899Y294749*
X548549Y292100*
X548899Y289449*
X549929Y286979*
X551549Y284849*
X553679Y283229*
X556149Y282199*
X558800Y281849*
X561449Y282199*
X563919Y283229*
X566049Y284849*
X567669Y286979*
X568699Y289449*
X569049Y292100*
X568699Y294749*
X567669Y297219*
X566049Y299349*
X563919Y300969*
X561449Y301999*
X558800Y302349*
G37*
G36*
X533400D02*
X530749Y301999D01*
X528279Y300969*
X526149Y299349*
X524529Y297219*
X523499Y294749*
X523149Y292100*
X523499Y289449*
X524529Y286979*
X526149Y284849*
X528279Y283229*
X530749Y282199*
X533400Y281849*
X536049Y282199*
X538519Y283229*
X540649Y284849*
X542269Y286979*
X543299Y289449*
X543649Y292100*
X543299Y294749*
X542269Y297219*
X540649Y299349*
X538519Y300969*
X536049Y301999*
X533400Y302349*
G37*
G36*
X289560Y302260D02*
X269240D01*
Y281940*
X289560*
Y302260*
G37*
G36*
X635000Y302349D02*
X632349Y301999D01*
X629879Y300969*
X627749Y299349*
X626129Y297219*
X625099Y294749*
X624749Y292100*
X625099Y289449*
X626129Y286979*
X627749Y284849*
X629879Y283229*
X632349Y282199*
X635000Y281849*
X637649Y282199*
X640119Y283229*
X642249Y284849*
X643869Y286979*
X644899Y289449*
X645249Y292100*
X644899Y294749*
X643869Y297219*
X642249Y299349*
X640119Y300969*
X637649Y301999*
X635000Y302349*
G37*
G36*
X609600D02*
X606949Y301999D01*
X604479Y300969*
X602349Y299349*
X600729Y297219*
X599699Y294749*
X599349Y292100*
X599699Y289449*
X600729Y286979*
X602349Y284849*
X604479Y283229*
X606949Y282199*
X609600Y281849*
X612249Y282199*
X614719Y283229*
X616849Y284849*
X618469Y286979*
X619499Y289449*
X619849Y292100*
X619499Y294749*
X618469Y297219*
X616849Y299349*
X614719Y300969*
X612249Y301999*
X609600Y302349*
G37*
G36*
X482600D02*
X479949Y301999D01*
X477479Y300969*
X475349Y299349*
X473729Y297219*
X472699Y294749*
X472349Y292100*
X472699Y289449*
X473729Y286979*
X475349Y284849*
X477479Y283229*
X479949Y282199*
X482600Y281849*
X485249Y282199*
X487719Y283229*
X489849Y284849*
X491469Y286979*
X492499Y289449*
X492849Y292100*
X492499Y294749*
X491469Y297219*
X489849Y299349*
X487719Y300969*
X485249Y301999*
X482600Y302349*
G37*
G36*
X330200D02*
X327549Y301999D01*
X325079Y300969*
X322949Y299349*
X321329Y297219*
X320299Y294749*
X319949Y292100*
X320299Y289449*
X321329Y286979*
X322949Y284849*
X325079Y283229*
X327549Y282199*
X330200Y281849*
X332849Y282199*
X335319Y283229*
X337449Y284849*
X339069Y286979*
X340099Y289449*
X340449Y292100*
X340099Y294749*
X339069Y297219*
X337449Y299349*
X335319Y300969*
X332849Y301999*
X330200Y302349*
G37*
G36*
X304800D02*
X302149Y301999D01*
X299679Y300969*
X297549Y299349*
X295929Y297219*
X294899Y294749*
X294549Y292100*
X294899Y289449*
X295929Y286979*
X297549Y284849*
X299679Y283229*
X302149Y282199*
X304800Y281849*
X307449Y282199*
X309919Y283229*
X312049Y284849*
X313669Y286979*
X314699Y289449*
X315049Y292100*
X314699Y294749*
X313669Y297219*
X312049Y299349*
X309919Y300969*
X307449Y301999*
X304800Y302349*
G37*
G36*
X508000D02*
X505349Y301999D01*
X502879Y300969*
X500749Y299349*
X499129Y297219*
X498099Y294749*
X497749Y292100*
X498099Y289449*
X499129Y286979*
X500749Y284849*
X502879Y283229*
X505349Y282199*
X508000Y281849*
X510649Y282199*
X511889Y282709*
X530649Y263949*
X531909Y263109*
X533400Y262819*
X698500*
X699989Y263109*
X701249Y263949*
X707399Y270109*
X708579Y269619*
X711200Y269269*
X713819Y269619*
X716259Y270629*
X718359Y272239*
X719969Y274339*
X720979Y276779*
X721329Y279400*
X720979Y282019*
X719969Y284459*
X718359Y286559*
X716259Y288169*
X713819Y289179*
X711200Y289529*
X708579Y289179*
X706139Y288169*
X704039Y286559*
X702429Y284459*
X701419Y282019*
X701069Y279400*
X701419Y276779*
X701909Y275599*
X696889Y270579*
X692889*
X692459Y271849*
X692959Y272239*
X694569Y274339*
X695579Y276779*
X695929Y279400*
X695579Y282019*
X694569Y284459*
X692959Y286559*
X690859Y288169*
X688419Y289179*
X685800Y289529*
X683179Y289179*
X680739Y288169*
X678639Y286559*
X677029Y284459*
X676019Y282019*
X675669Y279400*
X676019Y276779*
X677029Y274339*
X678639Y272239*
X679139Y271849*
X678709Y270579*
X535009*
X517389Y288209*
X517899Y289449*
X518249Y292100*
X517899Y294749*
X516869Y297219*
X515249Y299349*
X513119Y300969*
X510649Y301999*
X508000Y302349*
G37*
G36*
X457200D02*
X454549Y301999D01*
X452079Y300969*
X449949Y299349*
X448329Y297219*
X447299Y294749*
X446949Y292100*
X447299Y289449*
X448329Y286979*
X449949Y284849*
X452079Y283229*
X454549Y282199*
X457200Y281849*
X459849Y282199*
X462319Y283229*
X464449Y284849*
X466069Y286979*
X467099Y289449*
X467449Y292100*
X467099Y294749*
X466069Y297219*
X464449Y299349*
X462319Y300969*
X459849Y301999*
X457200Y302349*
G37*
G36*
X406400D02*
X403749Y301999D01*
X401279Y300969*
X399149Y299349*
X397529Y297219*
X396499Y294749*
X396149Y292100*
X396499Y289449*
X397529Y286979*
X399149Y284849*
X401279Y283229*
X403749Y282199*
X406400Y281849*
X409049Y282199*
X411519Y283229*
X413649Y284849*
X415269Y286979*
X416299Y289449*
X416649Y292100*
X416299Y294749*
X415269Y297219*
X413649Y299349*
X411519Y300969*
X409049Y301999*
X406400Y302349*
G37*
G36*
X365679Y290830D02*
X345519D01*
X345699Y289449*
X346729Y286979*
X348349Y284849*
X350479Y283229*
X352949Y282199*
X355600Y281849*
X358249Y282199*
X360719Y283229*
X362849Y284849*
X364469Y286979*
X365499Y289449*
X365679Y290830*
G37*
G36*
X355600Y302349D02*
X352949Y301999D01*
X350479Y300969*
X348349Y299349*
X346729Y297219*
X345699Y294749*
X345519Y293370*
X365679*
X365499Y294749*
X364469Y297219*
X362849Y299349*
X360719Y300969*
X358249Y301999*
X355600Y302349*
G37*
G36*
X314879Y443230D02*
X294719D01*
X294899Y441849*
X295929Y439379*
X297549Y437249*
X299679Y435629*
X302149Y434599*
X304800Y434249*
X307449Y434599*
X309919Y435629*
X312049Y437249*
X313669Y439379*
X314699Y441849*
X314879Y443230*
G37*
G36*
X279400Y454749D02*
X276749Y454399D01*
X274279Y453369*
X272149Y451749*
X270529Y449619*
X269499Y447149*
X269149Y444500*
X269499Y441849*
X270529Y439379*
X272149Y437249*
X274279Y435629*
X276749Y434599*
X279400Y434249*
X282049Y434599*
X284519Y435629*
X286649Y437249*
X288269Y439379*
X289299Y441849*
X289649Y444500*
X289299Y447149*
X288269Y449619*
X286649Y451749*
X284519Y453369*
X282049Y454399*
X279400Y454749*
G37*
G36*
X340239Y416439D02*
X320159D01*
Y396359*
X340239*
Y416439*
G37*
G36*
X330200Y454749D02*
X327549Y454399D01*
X325079Y453369*
X322949Y451749*
X321329Y449619*
X320299Y447149*
X319949Y444500*
X320299Y441849*
X321329Y439379*
X322949Y437249*
X325079Y435629*
X327549Y434599*
X330200Y434249*
X332849Y434599*
X335319Y435629*
X337449Y437249*
X339069Y439379*
X340099Y441849*
X340449Y444500*
X340099Y447149*
X339069Y449619*
X337449Y451749*
X335319Y453369*
X332849Y454399*
X330200Y454749*
G37*
G36*
X698500Y473779D02*
X533400D01*
X531909Y473489*
X530649Y472649*
X511889Y453889*
X510649Y454399*
X508000Y454749*
X505349Y454399*
X502879Y453369*
X500749Y451749*
X499129Y449619*
X498099Y447149*
X497749Y444500*
X498099Y441849*
X499129Y439379*
X500749Y437249*
X502879Y435629*
X505349Y434599*
X508000Y434249*
X510649Y434599*
X513119Y435629*
X515249Y437249*
X516869Y439379*
X517899Y441849*
X518249Y444500*
X517899Y447149*
X517389Y448389*
X535009Y466019*
X678709*
X679139Y464749*
X678639Y464359*
X677029Y462259*
X676539Y461079*
X546100*
X544609Y460789*
X543349Y459949*
X537289Y453889*
X536049Y454399*
X533400Y454749*
X530749Y454399*
X528279Y453369*
X526149Y451749*
X524529Y449619*
X523499Y447149*
X523149Y444500*
X523499Y441849*
X524529Y439379*
X526149Y437249*
X528279Y435629*
X530749Y434599*
X533400Y434249*
X536049Y434599*
X538519Y435629*
X540649Y437249*
X542269Y439379*
X543299Y441849*
X543649Y444500*
X543299Y447149*
X542789Y448389*
X547709Y453319*
X551619*
X552029Y452109*
X551549Y451749*
X549929Y449619*
X548899Y447149*
X548549Y444500*
X548899Y441849*
X549929Y439379*
X551549Y437249*
X553679Y435629*
X556149Y434599*
X558800Y434249*
X561449Y434599*
X562689Y435109*
X568749Y429049*
X570009Y428209*
X571500Y427919*
X676539*
X677029Y426739*
X678639Y424639*
X679139Y424249*
X678709Y422979*
X509609*
X491989Y440609*
X492499Y441849*
X492849Y444500*
X492499Y447149*
X491469Y449619*
X489849Y451749*
X487719Y453369*
X485249Y454399*
X482600Y454749*
X479949Y454399*
X477479Y453369*
X475349Y451749*
X474989Y451269*
X473779Y451679*
Y453390*
X473489Y454879*
X472649Y456139*
X461219Y467569*
X459959Y468409*
X458470Y468699*
X403860*
X402369Y468409*
X401109Y467569*
X390949Y457409*
X390109Y456149*
X389819Y454660*
Y451679*
X388609Y451269*
X388249Y451749*
X386119Y453369*
X383649Y454399*
X381000Y454749*
X378349Y454399*
X375879Y453369*
X373749Y451749*
X372129Y449619*
X371099Y447149*
X370749Y444500*
X371099Y441849*
X372129Y439379*
X373749Y437249*
X375879Y435629*
X378349Y434599*
X381000Y434249*
X383649Y434599*
X386119Y435629*
X388249Y437249*
X388609Y437729*
X389819Y437319*
Y407670*
X390109Y406179*
X390949Y404919*
X402379Y393489*
X403639Y392649*
X405130Y392359*
X412729*
X413409Y391089*
X413069Y390579*
X412750Y388959*
Y385739*
X413069Y384119*
X413989Y382749*
X415359Y381829*
X416489Y381609*
Y380069*
X390949Y354539*
X390109Y353279*
X389819Y351790*
Y306409*
X384889Y301489*
X383649Y301999*
X381000Y302349*
X378349Y301999*
X375879Y300969*
X373749Y299349*
X372129Y297219*
X371099Y294749*
X370749Y292100*
X371099Y289449*
X372129Y286979*
X373749Y284849*
X375879Y283229*
X378349Y282199*
X381000Y281849*
X383649Y282199*
X386119Y283229*
X388249Y284849*
X389869Y286979*
X390899Y289449*
X391249Y292100*
X390899Y294749*
X390389Y295989*
X396449Y302049*
X397289Y303309*
X397579Y304800*
Y350179*
X423119Y375709*
X423959Y376969*
X424249Y378460*
Y381609*
X425379Y381829*
X426749Y382749*
X427669Y384119*
X427990Y385739*
Y388959*
X427669Y390579*
X426859Y391799*
X427669Y393009*
X427990Y394629*
Y397849*
X427669Y399469*
X426859Y400689*
X427669Y401899*
X427990Y403519*
Y406739*
X427669Y408359*
X426749Y409729*
X426629Y410979*
X434549Y418889*
X435389Y420149*
X435679Y421640*
Y435109*
X436919Y435629*
X439049Y437249*
X440669Y439379*
X441699Y441849*
X442049Y444500*
X441699Y447149*
X440669Y449619*
X439049Y451749*
X436919Y453369*
X434449Y454399*
X431800Y454749*
X429149Y454399*
X426679Y453369*
X424549Y451749*
X422929Y449619*
X421899Y447149*
X421549Y444500*
X421899Y441849*
X422929Y439379*
X424549Y437249*
X426679Y435629*
X427919Y435109*
Y423249*
X417619Y412959*
X416779Y411699*
X416619Y410899*
X415359Y410649*
X413989Y409729*
X413069Y408359*
X412750Y406739*
Y403519*
X413069Y401899*
X413409Y401389*
X412729Y400119*
X406739*
X397579Y409279*
Y437319*
X398789Y437729*
X399149Y437249*
X401279Y435629*
X403749Y434599*
X406400Y434249*
X409049Y434599*
X411519Y435629*
X413649Y437249*
X415269Y439379*
X416299Y441849*
X416649Y444500*
X416299Y447149*
X415269Y449619*
X413649Y451749*
X411519Y453369*
X409049Y454399*
X406400Y454749*
X403749Y454399*
X401279Y453369*
X399149Y451749*
X398789Y451269*
X397579Y451679*
Y453049*
X405469Y460939*
X456859*
X464459Y453339*
X463619Y452379*
X462319Y453369*
X459849Y454399*
X457200Y454749*
X454549Y454399*
X452079Y453369*
X449949Y451749*
X448329Y449619*
X447299Y447149*
X446949Y444500*
X447299Y441849*
X448329Y439379*
X449949Y437249*
X452079Y435629*
X453319Y435109*
Y382609*
X417619Y346919*
X416779Y345659*
X416619Y344859*
X415359Y344609*
X413989Y343689*
X413069Y342319*
X412750Y340699*
Y337479*
X413069Y335859*
X413879Y334649*
X413069Y333429*
X412750Y331809*
Y328589*
X413069Y326969*
X413879Y325759*
X413069Y324539*
X412750Y322919*
Y319699*
X413069Y318079*
X413989Y316709*
X415359Y315789*
X416619Y315539*
X416779Y314739*
X417619Y313479*
X427919Y303189*
Y301489*
X426679Y300969*
X424549Y299349*
X422929Y297219*
X421899Y294749*
X421549Y292100*
X421899Y289449*
X422929Y286979*
X424549Y284849*
X426679Y283229*
X429149Y282199*
X431800Y281849*
X434449Y282199*
X436919Y283229*
X439049Y284849*
X440669Y286979*
X441699Y289449*
X442049Y292100*
X441699Y294749*
X440669Y297219*
X439049Y299349*
X436919Y300969*
X435679Y301489*
Y304800*
X435389Y306289*
X434549Y307549*
X426629Y315459*
X426749Y316709*
X427669Y318079*
X427990Y319699*
Y322919*
X427669Y324539*
X427329Y325049*
X428009Y326319*
X658789*
X670349Y314749*
X671609Y313909*
X673100Y313619*
X678709*
X679139Y312349*
X678639Y311959*
X677029Y309859*
X676019Y307419*
X675669Y304800*
X676019Y302179*
X677029Y299739*
X678639Y297639*
X680739Y296029*
X683179Y295019*
X685800Y294669*
X688419Y295019*
X690859Y296029*
X692959Y297639*
X694569Y299739*
X695579Y302179*
X695929Y304800*
X695579Y307419*
X694569Y309859*
X692959Y311959*
X692459Y312349*
X692889Y313619*
X698500*
X699989Y313909*
X701249Y314749*
X707399Y320909*
X708579Y320419*
X711200Y320069*
X713819Y320419*
X716259Y321429*
X718359Y323039*
X719969Y325139*
X720979Y327579*
X721329Y330200*
X720979Y332819*
X719969Y335259*
X718359Y337359*
X716259Y338969*
X713819Y339979*
X711200Y340329*
X708579Y339979*
X706139Y338969*
X704039Y337359*
X702429Y335259*
X701419Y332819*
X701069Y330200*
X701419Y327579*
X701909Y326399*
X696889Y321379*
X692889*
X692459Y322649*
X692959Y323039*
X694569Y325139*
X695579Y327579*
X695929Y330200*
X695579Y332819*
X694569Y335259*
X692959Y337359*
X690859Y338969*
X688419Y339979*
X687070Y340159*
Y330200*
X684530*
Y340159*
X683179Y339979*
X680739Y338969*
X678639Y337359*
X677029Y335259*
X676019Y332819*
X675669Y330200*
X676019Y327579*
X677029Y325139*
X678639Y323039*
X679139Y322649*
X678709Y321379*
X674709*
X663149Y332949*
X661889Y333789*
X660400Y334079*
X428009*
X427329Y335349*
X427669Y335859*
X427990Y337479*
Y340699*
X427669Y342319*
X426749Y343689*
X426629Y344939*
X459949Y378249*
X460789Y379509*
X461079Y381000*
Y435109*
X462319Y435629*
X464449Y437249*
X464809Y437729*
X466019Y437319*
Y408940*
X466309Y407449*
X467149Y406189*
X507789Y365549*
X509049Y364709*
X510540Y364419*
X678709*
X679139Y363149*
X678639Y362759*
X677029Y360659*
X676019Y358219*
X675669Y355600*
X676019Y352979*
X677029Y350539*
X678639Y348439*
X680739Y346829*
X683179Y345819*
X684530Y345639*
Y355600*
X687070*
Y345639*
X688419Y345819*
X690859Y346829*
X692959Y348439*
X694569Y350539*
X695579Y352979*
X695929Y355600*
X695579Y358219*
X694569Y360659*
X692959Y362759*
X692459Y363149*
X692889Y364419*
X696889*
X701909Y359399*
X701419Y358219*
X701069Y355600*
X701419Y352979*
X702429Y350539*
X704039Y348439*
X706139Y346829*
X708579Y345819*
X711200Y345469*
X713819Y345819*
X716259Y346829*
X718359Y348439*
X719969Y350539*
X720979Y352979*
X721329Y355600*
X720979Y358219*
X719969Y360659*
X718359Y362759*
X716259Y364369*
X713819Y365379*
X711200Y365729*
X708579Y365379*
X707399Y364889*
X701249Y371049*
X699989Y371889*
X698500Y372179*
X692889*
X692459Y373449*
X692959Y373839*
X694569Y375939*
X695579Y378379*
X695929Y381000*
X695579Y383619*
X694569Y386059*
X692959Y388159*
X690859Y389769*
X688419Y390779*
X685800Y391129*
X683179Y390779*
X680739Y389769*
X678639Y388159*
X677029Y386059*
X676019Y383619*
X675669Y381000*
X676019Y378379*
X677029Y375939*
X678639Y373839*
X679139Y373449*
X678709Y372179*
X512149*
X473779Y410549*
Y437319*
X474989Y437729*
X475349Y437249*
X477479Y435629*
X479949Y434599*
X482600Y434249*
X485249Y434599*
X486489Y435109*
X505249Y416349*
X506509Y415509*
X508000Y415219*
X678709*
X679139Y413949*
X678639Y413559*
X677029Y411459*
X676019Y409019*
X675669Y406400*
X676019Y403779*
X677029Y401339*
X678639Y399239*
X680739Y397629*
X683179Y396619*
X685800Y396269*
X688419Y396619*
X690859Y397629*
X692959Y399239*
X694569Y401339*
X695579Y403779*
X695929Y406400*
X695579Y409019*
X694569Y411459*
X692959Y413559*
X692459Y413949*
X692889Y415219*
X698500*
X699989Y415509*
X701249Y416349*
X707399Y422509*
X708579Y422019*
X711200Y421669*
X713819Y422019*
X716259Y423029*
X718359Y424639*
X719969Y426739*
X720979Y429179*
X721329Y431800*
X720979Y434419*
X719969Y436859*
X718359Y438959*
X716259Y440569*
X713819Y441579*
X711200Y441929*
X708579Y441579*
X706139Y440569*
X704039Y438959*
X702429Y436859*
X701419Y434419*
X701069Y431800*
X701419Y429179*
X701909Y427999*
X696889Y422979*
X692889*
X692459Y424249*
X692959Y424639*
X694569Y426739*
X695579Y429179*
X695929Y431800*
X695579Y434419*
X694569Y436859*
X692959Y438959*
X690859Y440569*
X688419Y441579*
X685800Y441929*
X683179Y441579*
X680739Y440569*
X678639Y438959*
X677029Y436859*
X676539Y435679*
X642179*
X641769Y436889*
X642249Y437249*
X643869Y439379*
X644899Y441849*
X645249Y444500*
X644899Y447149*
X643869Y449619*
X642249Y451749*
X641769Y452109*
X642179Y453319*
X676539*
X677029Y452139*
X678639Y450039*
X680739Y448429*
X683179Y447419*
X685800Y447069*
X688419Y447419*
X690859Y448429*
X692959Y450039*
X694569Y452139*
X695579Y454579*
X695929Y457200*
X695579Y459819*
X694569Y462259*
X692959Y464359*
X692459Y464749*
X692889Y466019*
X696889*
X701159Y461749*
Y447159*
X721239*
Y467239*
X706649*
X701249Y472649*
X699989Y473489*
X698500Y473779*
G37*
G36*
X304800Y454749D02*
X302149Y454399D01*
X299679Y453369*
X297549Y451749*
X295929Y449619*
X294899Y447149*
X294719Y445770*
X314879*
X314699Y447149*
X313669Y449619*
X312049Y451749*
X309919Y453369*
X307449Y454399*
X304800Y454749*
G37*
G36*
X355600D02*
X352949Y454399D01*
X350479Y453369*
X348349Y451749*
X346729Y449619*
X345699Y447149*
X345349Y444500*
X345699Y441849*
X346729Y439379*
X348349Y437249*
X350479Y435629*
X352949Y434599*
X355600Y434249*
X358249Y434599*
X360719Y435629*
X362849Y437249*
X364469Y439379*
X365499Y441849*
X365849Y444500*
X365499Y447149*
X364469Y449619*
X362849Y451749*
X360719Y453369*
X358249Y454399*
X355600Y454749*
G37*
G36*
X331470Y340159D02*
Y330200D01*
Y320239*
X332819Y320419*
X335259Y321429*
X337359Y323039*
X338969Y325139*
X339979Y327579*
X340329Y330200*
X339979Y332819*
X338969Y335259*
X337359Y337359*
X335259Y338969*
X332819Y339979*
X331470Y340159*
G37*
G36*
X328930D02*
X327579Y339979D01*
X325139Y338969*
X323039Y337359*
X321429Y335259*
X320419Y332819*
X320069Y330200*
X320419Y327579*
X321429Y325139*
X323039Y323039*
X325139Y321429*
X327579Y320419*
X328930Y320239*
Y330200*
Y340159*
G37*
G36*
X711200Y314929D02*
X708579Y314579D01*
X706139Y313569*
X704039Y311959*
X702429Y309859*
X701419Y307419*
X701069Y304800*
X701419Y302179*
X702429Y299739*
X704039Y297639*
X706139Y296029*
X708579Y295019*
X711200Y294669*
X713819Y295019*
X716259Y296029*
X718359Y297639*
X719969Y299739*
X720979Y302179*
X721329Y304800*
X720979Y307419*
X719969Y309859*
X718359Y311959*
X716259Y313569*
X713819Y314579*
X711200Y314929*
G37*
G36*
X340239Y365639D02*
X320159D01*
Y345559*
X340239*
Y365639*
G37*
G36*
X711200Y416529D02*
X708579Y416179D01*
X706139Y415169*
X704039Y413559*
X702429Y411459*
X701419Y409019*
X701069Y406400*
X701419Y403779*
X702429Y401339*
X704039Y399239*
X706139Y397629*
X708579Y396619*
X711200Y396269*
X713819Y396619*
X716259Y397629*
X718359Y399239*
X719969Y401339*
X720979Y403779*
X721329Y406400*
X720979Y409019*
X719969Y411459*
X718359Y413559*
X716259Y415169*
X713819Y416179*
X711200Y416529*
G37*
G36*
Y391129D02*
X708579Y390779D01*
X706139Y389769*
X704039Y388159*
X702429Y386059*
X701419Y383619*
X701069Y381000*
X701419Y378379*
X702429Y375939*
X704039Y373839*
X706139Y372229*
X708579Y371219*
X711200Y370869*
X713819Y371219*
X716259Y372229*
X718359Y373839*
X719969Y375939*
X720979Y378379*
X721329Y381000*
X720979Y383619*
X719969Y386059*
X718359Y388159*
X716259Y389769*
X713819Y390779*
X711200Y391129*
G37*
G36*
X330200D02*
X327579Y390779D01*
X325139Y389769*
X323039Y388159*
X321429Y386059*
X320419Y383619*
X320069Y381000*
X320419Y378379*
X321429Y375939*
X323039Y373839*
X325139Y372229*
X327579Y371219*
X330200Y370869*
X332819Y371219*
X335259Y372229*
X337359Y373839*
X338969Y375939*
X339979Y378379*
X340329Y381000*
X339979Y383619*
X338969Y386059*
X337359Y388159*
X335259Y389769*
X332819Y390779*
X330200Y391129*
G37*
G36*
X584200Y542349D02*
X581549Y541999D01*
X579079Y540969*
X576949Y539349*
X575329Y537219*
X574299Y534749*
X573949Y532099*
X574299Y529449*
X575329Y526979*
X576949Y524849*
X579079Y523229*
X581549Y522199*
X584200Y521849*
X586849Y522199*
X589319Y523229*
X591449Y524849*
X593069Y526979*
X594099Y529449*
X594449Y532099*
X594099Y534749*
X593069Y537219*
X591449Y539349*
X589319Y540969*
X586849Y541999*
X584200Y542349*
G37*
G36*
X558800D02*
X556149Y541999D01*
X553679Y540969*
X551549Y539349*
X549929Y537219*
X548899Y534749*
X548549Y532099*
X548899Y529449*
X549929Y526979*
X551549Y524849*
X553679Y523229*
X556149Y522199*
X558800Y521849*
X561449Y522199*
X563919Y523229*
X566049Y524849*
X567669Y526979*
X568699Y529449*
X569049Y532099*
X568699Y534749*
X567669Y537219*
X566049Y539349*
X563919Y540969*
X561449Y541999*
X558800Y542349*
G37*
G36*
X533400D02*
X530749Y541999D01*
X528279Y540969*
X526149Y539349*
X524529Y537219*
X523499Y534749*
X523149Y532099*
X523499Y529449*
X524529Y526979*
X526149Y524849*
X528279Y523229*
X530749Y522199*
X533400Y521849*
X536049Y522199*
X538519Y523229*
X540649Y524849*
X542269Y526979*
X543299Y529449*
X543649Y532099*
X543299Y534749*
X542269Y537219*
X540649Y539349*
X538519Y540969*
X536049Y541999*
X533400Y542349*
G37*
G36*
X289560Y542259D02*
X269240D01*
Y521939*
X289560*
Y542259*
G37*
G36*
X635000Y542349D02*
X632349Y541999D01*
X629879Y540969*
X627749Y539349*
X626129Y537219*
X625099Y534749*
X624749Y532099*
X625099Y529449*
X626129Y526979*
X627749Y524849*
X629879Y523229*
X632349Y522199*
X635000Y521849*
X637649Y522199*
X640119Y523229*
X642249Y524849*
X643869Y526979*
X644899Y529449*
X645249Y532099*
X644899Y534749*
X643869Y537219*
X642249Y539349*
X640119Y540969*
X637649Y541999*
X635000Y542349*
G37*
G36*
X609600D02*
X606949Y541999D01*
X604479Y540969*
X602349Y539349*
X600729Y537219*
X599699Y534749*
X599349Y532099*
X599699Y529449*
X600729Y526979*
X602349Y524849*
X604479Y523229*
X606949Y522199*
X609600Y521849*
X612249Y522199*
X614719Y523229*
X616849Y524849*
X618469Y526979*
X619499Y529449*
X619849Y532099*
X619499Y534749*
X618469Y537219*
X616849Y539349*
X614719Y540969*
X612249Y541999*
X609600Y542349*
G37*
G36*
X482600D02*
X479949Y541999D01*
X477479Y540969*
X475349Y539349*
X473729Y537219*
X472699Y534749*
X472349Y532099*
X472699Y529449*
X473729Y526979*
X475349Y524849*
X477479Y523229*
X479949Y522199*
X482600Y521849*
X485249Y522199*
X487719Y523229*
X489849Y524849*
X491469Y526979*
X492499Y529449*
X492849Y532099*
X492499Y534749*
X491469Y537219*
X489849Y539349*
X487719Y540969*
X485249Y541999*
X482600Y542349*
G37*
G36*
X330200D02*
X327549Y541999D01*
X325079Y540969*
X322949Y539349*
X321329Y537219*
X320299Y534749*
X319949Y532099*
X320299Y529449*
X321329Y526979*
X322949Y524849*
X325079Y523229*
X327549Y522199*
X330200Y521849*
X332849Y522199*
X335319Y523229*
X337449Y524849*
X339069Y526979*
X340099Y529449*
X340449Y532099*
X340099Y534749*
X339069Y537219*
X337449Y539349*
X335319Y540969*
X332849Y541999*
X330200Y542349*
G37*
G36*
X304800D02*
X302149Y541999D01*
X299679Y540969*
X297549Y539349*
X295929Y537219*
X294899Y534749*
X294549Y532099*
X294899Y529449*
X295929Y526979*
X297549Y524849*
X299679Y523229*
X302149Y522199*
X304800Y521849*
X307449Y522199*
X309919Y523229*
X312049Y524849*
X313669Y526979*
X314699Y529449*
X315049Y532099*
X314699Y534749*
X313669Y537219*
X312049Y539349*
X309919Y540969*
X307449Y541999*
X304800Y542349*
G37*
G36*
X508000D02*
X505349Y541999D01*
X502879Y540969*
X500749Y539349*
X499129Y537219*
X498099Y534749*
X497749Y532099*
X498099Y529449*
X499129Y526979*
X500749Y524849*
X502879Y523229*
X505349Y522199*
X508000Y521849*
X510649Y522199*
X511889Y522709*
X530649Y503949*
X531909Y503109*
X533400Y502819*
X698500*
X699989Y503109*
X701249Y503949*
X707399Y510109*
X708579Y509619*
X711200Y509270*
X713819Y509619*
X716259Y510629*
X718359Y512239*
X719969Y514339*
X720979Y516779*
X721329Y519399*
X720979Y522019*
X719969Y524459*
X718359Y526559*
X716259Y528169*
X713819Y529179*
X711200Y529529*
X708579Y529179*
X706139Y528169*
X704039Y526559*
X702429Y524459*
X701419Y522019*
X701069Y519399*
X701419Y516779*
X701909Y515599*
X696889Y510579*
X692889*
X692459Y511849*
X692959Y512239*
X694569Y514339*
X695579Y516779*
X695929Y519399*
X695579Y522019*
X694569Y524459*
X692959Y526559*
X690859Y528169*
X688419Y529179*
X685800Y529529*
X683179Y529179*
X680739Y528169*
X678639Y526559*
X677029Y524459*
X676019Y522019*
X675669Y519399*
X676019Y516779*
X677029Y514339*
X678639Y512239*
X679139Y511849*
X678709Y510579*
X535009*
X517389Y528209*
X517899Y529449*
X518249Y532099*
X517899Y534749*
X516869Y537219*
X515249Y539349*
X513119Y540969*
X510649Y541999*
X508000Y542349*
G37*
G36*
X457200D02*
X454549Y541999D01*
X452079Y540969*
X449949Y539349*
X448329Y537219*
X447299Y534749*
X446949Y532099*
X447299Y529449*
X448329Y526979*
X449949Y524849*
X452079Y523229*
X454549Y522199*
X457200Y521849*
X459849Y522199*
X462319Y523229*
X464449Y524849*
X466069Y526979*
X467099Y529449*
X467449Y532099*
X467099Y534749*
X466069Y537219*
X464449Y539349*
X462319Y540969*
X459849Y541999*
X457200Y542349*
G37*
G36*
X406400D02*
X403749Y541999D01*
X401279Y540969*
X399149Y539349*
X397529Y537219*
X396499Y534749*
X396149Y532099*
X396499Y529449*
X397529Y526979*
X399149Y524849*
X401279Y523229*
X403749Y522199*
X406400Y521849*
X409049Y522199*
X411519Y523229*
X413649Y524849*
X415269Y526979*
X416299Y529449*
X416649Y532099*
X416299Y534749*
X415269Y537219*
X413649Y539349*
X411519Y540969*
X409049Y541999*
X406400Y542349*
G37*
G36*
X365679Y530829D02*
X345519D01*
X345699Y529449*
X346729Y526979*
X348349Y524849*
X350479Y523229*
X352949Y522199*
X355600Y521849*
X358249Y522199*
X360719Y523229*
X362849Y524849*
X364469Y526979*
X365499Y529449*
X365679Y530829*
G37*
G36*
X355600Y542349D02*
X352949Y541999D01*
X350479Y540969*
X348349Y539349*
X346729Y537219*
X345699Y534749*
X345519Y533369*
X365679*
X365499Y534749*
X364469Y537219*
X362849Y539349*
X360719Y540969*
X358249Y541999*
X355600Y542349*
G37*
G36*
X314879Y683229D02*
X294719D01*
X294899Y681849*
X295929Y679379*
X297549Y677249*
X299679Y675629*
X302149Y674599*
X304800Y674249*
X307449Y674599*
X309919Y675629*
X312049Y677249*
X313669Y679379*
X314699Y681849*
X314879Y683229*
G37*
G36*
X279400Y694749D02*
X276749Y694399D01*
X274279Y693369*
X272149Y691749*
X270529Y689619*
X269499Y687149*
X269149Y684499*
X269499Y681849*
X270529Y679379*
X272149Y677249*
X274279Y675629*
X276749Y674599*
X279400Y674249*
X282049Y674599*
X284519Y675629*
X286649Y677249*
X288269Y679379*
X289299Y681849*
X289649Y684499*
X289299Y687149*
X288269Y689619*
X286649Y691749*
X284519Y693369*
X282049Y694399*
X279400Y694749*
G37*
G36*
X340239Y656439D02*
X320159D01*
Y636359*
X340239*
Y656439*
G37*
G36*
X330200Y694749D02*
X327549Y694399D01*
X325079Y693369*
X322949Y691749*
X321329Y689619*
X320299Y687149*
X319949Y684499*
X320299Y681849*
X321329Y679379*
X322949Y677249*
X325079Y675629*
X327549Y674599*
X330200Y674249*
X332849Y674599*
X335319Y675629*
X337449Y677249*
X339069Y679379*
X340099Y681849*
X340449Y684499*
X340099Y687149*
X339069Y689619*
X337449Y691749*
X335319Y693369*
X332849Y694399*
X330200Y694749*
G37*
G36*
X698500Y713779D02*
X533400D01*
X531909Y713489*
X530649Y712649*
X511889Y693889*
X510649Y694399*
X508000Y694749*
X505349Y694399*
X502879Y693369*
X500749Y691749*
X499129Y689619*
X498099Y687149*
X497749Y684499*
X498099Y681849*
X499129Y679379*
X500749Y677249*
X502879Y675629*
X505349Y674599*
X508000Y674249*
X510649Y674599*
X513119Y675629*
X515249Y677249*
X516869Y679379*
X517899Y681849*
X518249Y684499*
X517899Y687149*
X517389Y688389*
X535009Y706019*
X678709*
X679139Y704749*
X678639Y704359*
X677029Y702259*
X676539Y701079*
X546100*
X544609Y700789*
X543349Y699949*
X537289Y693889*
X536049Y694399*
X533400Y694749*
X530749Y694399*
X528279Y693369*
X526149Y691749*
X524529Y689619*
X523499Y687149*
X523149Y684499*
X523499Y681849*
X524529Y679379*
X526149Y677249*
X528279Y675629*
X530749Y674599*
X533400Y674249*
X536049Y674599*
X538519Y675629*
X540649Y677249*
X542269Y679379*
X543299Y681849*
X543649Y684499*
X543299Y687149*
X542789Y688389*
X547709Y693319*
X551619*
X552029Y692109*
X551549Y691749*
X549929Y689619*
X548899Y687149*
X548549Y684499*
X548899Y681849*
X549929Y679379*
X551549Y677249*
X553679Y675629*
X556149Y674599*
X558800Y674249*
X561449Y674599*
X562689Y675109*
X568749Y669049*
X570009Y668209*
X571500Y667919*
X676539*
X677029Y666739*
X678639Y664639*
X679139Y664249*
X678709Y662979*
X509609*
X491989Y680609*
X492499Y681849*
X492849Y684499*
X492499Y687149*
X491469Y689619*
X489849Y691749*
X487719Y693369*
X485249Y694399*
X482600Y694749*
X479949Y694399*
X477479Y693369*
X475349Y691749*
X474989Y691269*
X473779Y691679*
Y693389*
X473489Y694879*
X472649Y696139*
X461219Y707569*
X459959Y708409*
X458470Y708699*
X403860*
X402369Y708409*
X401109Y707569*
X390949Y697409*
X390109Y696149*
X389819Y694659*
Y691679*
X388609Y691269*
X388249Y691749*
X386119Y693369*
X383649Y694399*
X381000Y694749*
X378349Y694399*
X375879Y693369*
X373749Y691749*
X372129Y689619*
X371099Y687149*
X370749Y684499*
X371099Y681849*
X372129Y679379*
X373749Y677249*
X375879Y675629*
X378349Y674599*
X381000Y674249*
X383649Y674599*
X386119Y675629*
X388249Y677249*
X388609Y677729*
X389819Y677319*
Y647669*
X390109Y646179*
X390949Y644919*
X402379Y633489*
X403639Y632649*
X405130Y632359*
X412729*
X413409Y631089*
X413069Y630579*
X412750Y628959*
Y625739*
X413069Y624119*
X413989Y622749*
X415359Y621829*
X416489Y621609*
Y620069*
X390949Y594539*
X390109Y593279*
X389819Y591789*
Y546409*
X384889Y541489*
X383649Y541999*
X381000Y542349*
X378349Y541999*
X375879Y540969*
X373749Y539349*
X372129Y537219*
X371099Y534749*
X370749Y532099*
X371099Y529449*
X372129Y526979*
X373749Y524849*
X375879Y523229*
X378349Y522199*
X381000Y521849*
X383649Y522199*
X386119Y523229*
X388249Y524849*
X389869Y526979*
X390899Y529449*
X391249Y532099*
X390899Y534749*
X390389Y535989*
X396449Y542049*
X397289Y543309*
X397579Y544799*
Y590179*
X423119Y615709*
X423959Y616969*
X424249Y618459*
Y621609*
X425379Y621829*
X426749Y622749*
X427669Y624119*
X427990Y625739*
Y628959*
X427669Y630579*
X426859Y631799*
X427669Y633009*
X427990Y634629*
Y637849*
X427669Y639469*
X426859Y640679*
X427669Y641899*
X427990Y643519*
Y646739*
X427669Y648359*
X426749Y649729*
X426629Y650979*
X434549Y658889*
X435389Y660149*
X435679Y661639*
Y675109*
X436919Y675629*
X439049Y677249*
X440669Y679379*
X441699Y681849*
X442049Y684499*
X441699Y687149*
X440669Y689619*
X439049Y691749*
X436919Y693369*
X434449Y694399*
X431800Y694749*
X429149Y694399*
X426679Y693369*
X424549Y691749*
X422929Y689619*
X421899Y687149*
X421549Y684499*
X421899Y681849*
X422929Y679379*
X424549Y677249*
X426679Y675629*
X427919Y675109*
Y663249*
X417619Y652959*
X416779Y651699*
X416619Y650899*
X415359Y650649*
X413989Y649729*
X413069Y648359*
X412750Y646739*
Y643519*
X413069Y641899*
X413409Y641389*
X412729Y640119*
X406739*
X397579Y649279*
Y677319*
X398789Y677729*
X399149Y677249*
X401279Y675629*
X403749Y674599*
X406400Y674249*
X409049Y674599*
X411519Y675629*
X413649Y677249*
X415269Y679379*
X416299Y681849*
X416649Y684499*
X416299Y687149*
X415269Y689619*
X413649Y691749*
X411519Y693369*
X409049Y694399*
X406400Y694749*
X403749Y694399*
X401279Y693369*
X399149Y691749*
X398789Y691269*
X397579Y691679*
Y693049*
X405469Y700939*
X456859*
X464459Y693339*
X463619Y692379*
X462319Y693369*
X459849Y694399*
X457200Y694749*
X454549Y694399*
X452079Y693369*
X449949Y691749*
X448329Y689619*
X447299Y687149*
X446949Y684499*
X447299Y681849*
X448329Y679379*
X449949Y677249*
X452079Y675629*
X453319Y675109*
Y622609*
X417619Y586919*
X416779Y585659*
X416619Y584859*
X415359Y584609*
X413989Y583689*
X413069Y582319*
X412750Y580699*
Y577479*
X413069Y575859*
X413879Y574649*
X413069Y573429*
X412750Y571809*
Y568589*
X413069Y566969*
X413879Y565759*
X413069Y564539*
X412750Y562919*
Y559699*
X413069Y558079*
X413989Y556709*
X415359Y555789*
X416619Y555539*
X416779Y554739*
X417619Y553479*
X427919Y543189*
Y541489*
X426679Y540969*
X424549Y539349*
X422929Y537219*
X421899Y534749*
X421549Y532099*
X421899Y529449*
X422929Y526979*
X424549Y524849*
X426679Y523229*
X429149Y522199*
X431800Y521849*
X434449Y522199*
X436919Y523229*
X439049Y524849*
X440669Y526979*
X441699Y529449*
X442049Y532099*
X441699Y534749*
X440669Y537219*
X439049Y539349*
X436919Y540969*
X435679Y541489*
Y544799*
X435389Y546289*
X434549Y547549*
X426629Y555459*
X426749Y556709*
X427669Y558079*
X427990Y559699*
Y562919*
X427669Y564539*
X427329Y565049*
X428009Y566319*
X658789*
X670349Y554749*
X671609Y553909*
X673100Y553619*
X678709*
X679139Y552349*
X678639Y551959*
X677029Y549859*
X676019Y547419*
X675669Y544799*
X676019Y542179*
X677029Y539739*
X678639Y537639*
X680739Y536029*
X683179Y535019*
X685800Y534670*
X688419Y535019*
X690859Y536029*
X692959Y537639*
X694569Y539739*
X695579Y542179*
X695929Y544799*
X695579Y547419*
X694569Y549859*
X692959Y551959*
X692459Y552349*
X692889Y553619*
X698500*
X699989Y553909*
X701249Y554749*
X707399Y560909*
X708579Y560419*
X711200Y560070*
X713819Y560419*
X716259Y561429*
X718359Y563039*
X719969Y565139*
X720979Y567579*
X721329Y570199*
X720979Y572819*
X719969Y575259*
X718359Y577359*
X716259Y578969*
X713819Y579979*
X711200Y580329*
X708579Y579979*
X706139Y578969*
X704039Y577359*
X702429Y575259*
X701419Y572819*
X701069Y570199*
X701419Y567579*
X701909Y566399*
X696889Y561379*
X692889*
X692459Y562649*
X692959Y563039*
X694569Y565139*
X695579Y567579*
X695929Y570199*
X695579Y572819*
X694569Y575259*
X692959Y577359*
X690859Y578969*
X688419Y579979*
X687070Y580159*
Y570199*
X684530*
Y580159*
X683179Y579979*
X680739Y578969*
X678639Y577359*
X677029Y575259*
X676019Y572819*
X675669Y570199*
X676019Y567579*
X677029Y565139*
X678639Y563039*
X679139Y562649*
X678709Y561379*
X674709*
X663149Y572949*
X661889Y573789*
X660400Y574079*
X428009*
X427329Y575349*
X427669Y575859*
X427990Y577479*
Y580699*
X427669Y582319*
X426749Y583689*
X426629Y584939*
X459949Y618249*
X460789Y619509*
X461079Y620999*
Y675109*
X462319Y675629*
X464449Y677249*
X464809Y677729*
X466019Y677319*
Y648939*
X466309Y647449*
X467149Y646189*
X507789Y605549*
X509049Y604709*
X510540Y604419*
X678709*
X679139Y603149*
X678639Y602759*
X677029Y600659*
X676019Y598219*
X675669Y595599*
X676019Y592979*
X677029Y590539*
X678639Y588439*
X680739Y586829*
X683179Y585819*
X684530Y585639*
Y595599*
X687070*
Y585639*
X688419Y585819*
X690859Y586829*
X692959Y588439*
X694569Y590539*
X695579Y592979*
X695929Y595599*
X695579Y598219*
X694569Y600659*
X692959Y602759*
X692459Y603149*
X692889Y604419*
X696889*
X701909Y599399*
X701419Y598219*
X701069Y595599*
X701419Y592979*
X702429Y590539*
X704039Y588439*
X706139Y586829*
X708579Y585819*
X711200Y585470*
X713819Y585819*
X716259Y586829*
X718359Y588439*
X719969Y590539*
X720979Y592979*
X721329Y595599*
X720979Y598219*
X719969Y600659*
X718359Y602759*
X716259Y604369*
X713819Y605379*
X711200Y605729*
X708579Y605379*
X707399Y604889*
X701249Y611049*
X699989Y611889*
X698500Y612179*
X692889*
X692459Y613449*
X692959Y613839*
X694569Y615939*
X695579Y618379*
X695929Y620999*
X695579Y623619*
X694569Y626059*
X692959Y628159*
X690859Y629769*
X688419Y630779*
X685800Y631129*
X683179Y630779*
X680739Y629769*
X678639Y628159*
X677029Y626059*
X676019Y623619*
X675669Y620999*
X676019Y618379*
X677029Y615939*
X678639Y613839*
X679139Y613449*
X678709Y612179*
X512149*
X473779Y650549*
Y677319*
X474989Y677729*
X475349Y677249*
X477479Y675629*
X479949Y674599*
X482600Y674249*
X485249Y674599*
X486489Y675109*
X505249Y656349*
X506509Y655509*
X508000Y655219*
X678709*
X679139Y653949*
X678639Y653559*
X677029Y651459*
X676019Y649019*
X675669Y646399*
X676019Y643779*
X677029Y641339*
X678639Y639239*
X680739Y637629*
X683179Y636619*
X685800Y636270*
X688419Y636619*
X690859Y637629*
X692959Y639239*
X694569Y641339*
X695579Y643779*
X695929Y646399*
X695579Y649019*
X694569Y651459*
X692959Y653559*
X692459Y653949*
X692889Y655219*
X698500*
X699989Y655509*
X701249Y656349*
X707399Y662509*
X708579Y662019*
X711200Y661670*
X713819Y662019*
X716259Y663029*
X718359Y664639*
X719969Y666739*
X720979Y669179*
X721329Y671799*
X720979Y674419*
X719969Y676859*
X718359Y678959*
X716259Y680569*
X713819Y681579*
X711200Y681929*
X708579Y681579*
X706139Y680569*
X704039Y678959*
X702429Y676859*
X701419Y674419*
X701069Y671799*
X701419Y669179*
X701909Y667999*
X696889Y662979*
X692889*
X692459Y664249*
X692959Y664639*
X694569Y666739*
X695579Y669179*
X695929Y671799*
X695579Y674419*
X694569Y676859*
X692959Y678959*
X690859Y680569*
X688419Y681579*
X685800Y681929*
X683179Y681579*
X680739Y680569*
X678639Y678959*
X677029Y676859*
X676539Y675679*
X642179*
X641769Y676889*
X642249Y677249*
X643869Y679379*
X644899Y681849*
X645249Y684499*
X644899Y687149*
X643869Y689619*
X642249Y691749*
X641769Y692109*
X642179Y693319*
X676539*
X677029Y692139*
X678639Y690039*
X680739Y688429*
X683179Y687419*
X685800Y687070*
X688419Y687419*
X690859Y688429*
X692959Y690039*
X694569Y692139*
X695579Y694579*
X695929Y697199*
X695579Y699819*
X694569Y702259*
X692959Y704359*
X692459Y704749*
X692889Y706019*
X696889*
X701159Y701749*
Y687159*
X721239*
Y707239*
X706649*
X701249Y712649*
X699989Y713489*
X698500Y713779*
G37*
G36*
X304800Y694749D02*
X302149Y694399D01*
X299679Y693369*
X297549Y691749*
X295929Y689619*
X294899Y687149*
X294719Y685769*
X314879*
X314699Y687149*
X313669Y689619*
X312049Y691749*
X309919Y693369*
X307449Y694399*
X304800Y694749*
G37*
G36*
X355600D02*
X352949Y694399D01*
X350479Y693369*
X348349Y691749*
X346729Y689619*
X345699Y687149*
X345349Y684499*
X345699Y681849*
X346729Y679379*
X348349Y677249*
X350479Y675629*
X352949Y674599*
X355600Y674249*
X358249Y674599*
X360719Y675629*
X362849Y677249*
X364469Y679379*
X365499Y681849*
X365849Y684499*
X365499Y687149*
X364469Y689619*
X362849Y691749*
X360719Y693369*
X358249Y694399*
X355600Y694749*
G37*
G36*
X331470Y580159D02*
Y570199D01*
Y560239*
X332819Y560419*
X335259Y561429*
X337359Y563039*
X338969Y565139*
X339979Y567579*
X340329Y570199*
X339979Y572819*
X338969Y575259*
X337359Y577359*
X335259Y578969*
X332819Y579979*
X331470Y580159*
G37*
G36*
X328930D02*
X327579Y579979D01*
X325139Y578969*
X323039Y577359*
X321429Y575259*
X320419Y572819*
X320069Y570199*
X320419Y567579*
X321429Y565139*
X323039Y563039*
X325139Y561429*
X327579Y560419*
X328930Y560239*
Y570199*
Y580159*
G37*
G36*
X711200Y554929D02*
X708579Y554579D01*
X706139Y553569*
X704039Y551959*
X702429Y549859*
X701419Y547419*
X701069Y544799*
X701419Y542179*
X702429Y539739*
X704039Y537639*
X706139Y536029*
X708579Y535019*
X711200Y534670*
X713819Y535019*
X716259Y536029*
X718359Y537639*
X719969Y539739*
X720979Y542179*
X721329Y544799*
X720979Y547419*
X719969Y549859*
X718359Y551959*
X716259Y553569*
X713819Y554579*
X711200Y554929*
G37*
G36*
X340239Y605639D02*
X320159D01*
Y585559*
X340239*
Y605639*
G37*
G36*
X711200Y656529D02*
X708579Y656179D01*
X706139Y655169*
X704039Y653559*
X702429Y651459*
X701419Y649019*
X701069Y646399*
X701419Y643779*
X702429Y641339*
X704039Y639239*
X706139Y637629*
X708579Y636619*
X711200Y636270*
X713819Y636619*
X716259Y637629*
X718359Y639239*
X719969Y641339*
X720979Y643779*
X721329Y646399*
X720979Y649019*
X719969Y651459*
X718359Y653559*
X716259Y655169*
X713819Y656179*
X711200Y656529*
G37*
G36*
Y631129D02*
X708579Y630779D01*
X706139Y629769*
X704039Y628159*
X702429Y626059*
X701419Y623619*
X701069Y620999*
X701419Y618379*
X702429Y615939*
X704039Y613839*
X706139Y612229*
X708579Y611219*
X711200Y610870*
X713819Y611219*
X716259Y612229*
X718359Y613839*
X719969Y615939*
X720979Y618379*
X721329Y620999*
X720979Y623619*
X719969Y626059*
X718359Y628159*
X716259Y629769*
X713819Y630779*
X711200Y631129*
G37*
G36*
X330200D02*
X327579Y630779D01*
X325139Y629769*
X323039Y628159*
X321429Y626059*
X320419Y623619*
X320069Y620999*
X320419Y618379*
X321429Y615939*
X323039Y613839*
X325139Y612229*
X327579Y611219*
X330200Y610870*
X332819Y611219*
X335259Y612229*
X337359Y613839*
X338969Y615939*
X339979Y618379*
X340329Y620999*
X339979Y623619*
X338969Y626059*
X337359Y628159*
X335259Y629769*
X332819Y630779*
X330200Y631129*
G37*
%LN_4x40lcd_arduino_nano_piggyboard_(rev1.4)_-_2xpanel-3*%
%LPD*%
G54D15*
X457200Y381000D02*
Y444500D01*
X431800Y421640D02*
Y444500D01*
X458470Y464820D02*
X469900Y453390D01*
Y408940D02*
Y453390D01*
Y408940D02*
X510540Y368300D01*
X431800Y292100D02*
Y304800D01*
X420370Y330200D02*
X660400D01*
X673100Y317500D02*
X698500D01*
X660400Y330200D02*
X673100Y317500D01*
X510540Y368300D02*
X698500D01*
Y317500D02*
X711200Y330200D01*
X698500Y368300D02*
X711200Y355600D01*
X546100Y457200D02*
X685800D01*
X533400Y444500D02*
X546100Y457200D01*
X698500Y469900D02*
X711200Y457200D01*
X533400Y469900D02*
X698500D01*
X508000Y444500D02*
X533400Y469900D01*
X698500Y419100D02*
X711200Y431800D01*
X508000Y419100D02*
X698500D01*
X482600Y444500D02*
X508000Y419100D01*
X558800Y444500D02*
X571500Y431800D01*
X685800*
X508000Y292100D02*
X533400Y266700D01*
X698500*
X711200Y279400*
X420370Y410210D02*
X431800Y421640D01*
X420370Y405130D02*
Y410210D01*
Y316230D02*
X431800Y304800D01*
X420370Y316230D02*
Y321310D01*
Y339090D02*
Y344170D01*
X457200Y381000*
X393700Y407670D02*
Y454660D01*
X403860Y464820*
X458470*
X405130Y396240D02*
X420370D01*
X393700Y407670D02*
X405130Y396240D01*
X381000Y292100D02*
X393700Y304800D01*
Y351790*
X420370Y378460D02*
Y387350D01*
X393700Y351790D02*
X420370Y378460D01*
X457200Y620999D02*
Y684499D01*
X431800Y661639D02*
Y684499D01*
X458470Y704819D02*
X469900Y693389D01*
Y648939D02*
Y693389D01*
Y648939D02*
X510540Y608299D01*
X431800Y532099D02*
Y544799D01*
X420370Y570199D02*
X660400D01*
X673100Y557499D02*
X698500D01*
X660400Y570199D02*
X673100Y557499D01*
X510540Y608299D02*
X698500D01*
Y557499D02*
X711200Y570199D01*
X698500Y608299D02*
X711200Y595599D01*
X546100Y697199D02*
X685800D01*
X533400Y684499D02*
X546100Y697199D01*
X698500Y709899D02*
X711200Y697199D01*
X533400Y709899D02*
X698500D01*
X508000Y684499D02*
X533400Y709899D01*
X698500Y659099D02*
X711200Y671799D01*
X508000Y659099D02*
X698500D01*
X482600Y684499D02*
X508000Y659099D01*
X558800Y684499D02*
X571500Y671799D01*
X685800*
X508000Y532099D02*
X533400Y506699D01*
X698500*
X711200Y519399*
X420370Y650209D02*
X431800Y661639D01*
X420370Y645129D02*
Y650209D01*
Y556229D02*
X431800Y544799D01*
X420370Y556229D02*
Y561309D01*
Y579089D02*
Y584169D01*
X457200Y620999*
X393700Y647669D02*
Y694659D01*
X403860Y704819*
X458470*
X405130Y636239D02*
X420370D01*
X393700Y647669D02*
X405130Y636239D01*
X381000Y532099D02*
X393700Y544799D01*
Y591789*
X420370Y618459D02*
Y627349D01*
X393700Y591789D02*
X420370Y618459D01*
G54D16*
X330200Y406400D03*
X711200Y457200D03*
X330200Y355600D03*
Y646399D03*
X711200Y697199D03*
X330200Y595599D03*
G54D17*
X330200Y381000D03*
X685800Y279400D03*
X711200D03*
X685800Y304800D03*
X711200D03*
X685800Y330200D03*
X711200D03*
X685800Y355600D03*
X711200D03*
X685800Y381000D03*
X711200D03*
X685800Y406400D03*
X711200D03*
X685800Y431800D03*
X711200D03*
X685800Y457200D03*
X330200Y330200D03*
Y620999D03*
X685800Y519399D03*
X711200D03*
X685800Y544799D03*
X711200D03*
X685800Y570199D03*
X711200D03*
X685800Y595599D03*
X711200D03*
X685800Y620999D03*
X711200D03*
X685800Y646399D03*
X711200D03*
X685800Y671799D03*
X711200D03*
X685800Y697199D03*
X330200Y570199D03*
G54D18*
X279400Y292100D03*
Y532099D03*
G54D19*
X304800Y292100D03*
X330200D03*
X355600D03*
X381000D03*
X406400D03*
X431800D03*
X457200D03*
X482600D03*
X508000D03*
X533400D03*
X558800D03*
X584200D03*
X609600D03*
X635000D03*
Y444500D03*
X609600D03*
X584200D03*
X558800D03*
X533400D03*
X508000D03*
X482600D03*
X457200D03*
X431800D03*
X406400D03*
X381000D03*
X355600D03*
X330200D03*
X304800D03*
X279400D03*
X304800Y532099D03*
X330200D03*
X355600D03*
X381000D03*
X406400D03*
X431800D03*
X457200D03*
X482600D03*
X508000D03*
X533400D03*
X558800D03*
X584200D03*
X609600D03*
X635000D03*
Y684499D03*
X609600D03*
X584200D03*
X558800D03*
X533400D03*
X508000D03*
X482600D03*
X457200D03*
X431800D03*
X406400D03*
X381000D03*
X355600D03*
X330200D03*
X304800D03*
X279400D03*
G54D20*
X420370Y396240D03*
Y387350D03*
Y405130D03*
Y330200D03*
Y339090D03*
Y321310D03*
Y636239D03*
Y627349D03*
Y645129D03*
Y570199D03*
Y579089D03*
Y561309D03*
M02*