%FSDAX24Y24*%
%MOMM*%
%SFA1B1*%

%IPPOS*%
%ADD15C,0.253999*%
%ADD25R,2.602995X3.502993*%
%ADD26R,2.602995X1.202998*%
%ADD27R,1.202998X1.502997*%
%ADD28R,1.502997X2.202996*%
%ADD29R,2.202996X2.202996*%
%ADD30R,1.702997X1.702997*%
%ADD31C,1.702997*%
%ADD32R,1.726997X1.726997*%
%ADD33C,1.726997*%
%LN_4x40lcd_arduino_nano_piggyboard_(rev1.4)_-_2xpanel-1*%
%LPD*%
G54D15*
X736600Y254000D02*
Y722599D01*
X254000Y254000D02*
Y722599D01*
X736600*
X254000Y254000D02*
X736600D01*
G54D25*
X388829Y365760D03*
Y605759D03*
G54D26*
X446829Y388759D03*
Y365760D03*
Y342759D03*
Y628759D03*
Y605759D03*
Y582759D03*
G54D27*
X633799Y342900D03*
X610799D03*
X559999D03*
X582999D03*
X633799Y582899D03*
X610799D03*
X559999D03*
X582999D03*
G54D28*
X519499Y384489D03*
X496499D03*
X519499Y624489D03*
X496499D03*
G54D29*
X508000Y344489D03*
Y584489D03*
G54D30*
X330200Y406400D03*
X711200Y457200D03*
X330200Y355600D03*
Y646399D03*
X711200Y697199D03*
X330200Y595599D03*
G54D31*
X330200Y381000D03*
X685800Y279400D03*
X711200D03*
X685800Y304800D03*
X711200D03*
X685800Y330200D03*
X711200D03*
X685800Y355600D03*
X711200D03*
X685800Y381000D03*
X711200D03*
X685800Y406400D03*
X711200D03*
X685800Y431800D03*
X711200D03*
X685800Y457200D03*
X330200Y330200D03*
Y620999D03*
X685800Y519399D03*
X711200D03*
X685800Y544799D03*
X711200D03*
X685800Y570199D03*
X711200D03*
X685800Y595599D03*
X711200D03*
X685800Y620999D03*
X711200D03*
X685800Y646399D03*
X711200D03*
X685800Y671799D03*
X711200D03*
X685800Y697199D03*
X330200Y570199D03*
G54D32*
X279400Y292100D03*
Y532099D03*
G54D33*
X304800Y292100D03*
X330200D03*
X355600D03*
X381000D03*
X406400D03*
X431800D03*
X457200D03*
X482600D03*
X508000D03*
X533400D03*
X558800D03*
X584200D03*
X609600D03*
X635000D03*
Y444500D03*
X609600D03*
X584200D03*
X558800D03*
X533400D03*
X508000D03*
X482600D03*
X457200D03*
X431800D03*
X406400D03*
X381000D03*
X355600D03*
X330200D03*
X304800D03*
X279400D03*
X304800Y532099D03*
X330200D03*
X355600D03*
X381000D03*
X406400D03*
X431800D03*
X457200D03*
X482600D03*
X508000D03*
X533400D03*
X558800D03*
X584200D03*
X609600D03*
X635000D03*
Y684499D03*
X609600D03*
X584200D03*
X558800D03*
X533400D03*
X508000D03*
X482600D03*
X457200D03*
X431800D03*
X406400D03*
X381000D03*
X355600D03*
X330200D03*
X304800D03*
X279400D03*
M02*