%FSDAX24Y24*%
%MOMM*%
%SFA1B1*%

%IPPOS*%
%ADD9500C,0.761998*%
%ADD9501C,0.899998*%
%LN_4x40lcd_arduino_nano_piggyboard_(rev1.4)_-_2xpanel-1*%
%LPD*%
G54D9500*
X279400Y292100D03*
X304800D03*
X330200D03*
X355600D03*
X381000D03*
X406400D03*
X431800D03*
X457200D03*
X482600D03*
X508000D03*
X533400D03*
X558800D03*
X584200D03*
X609600D03*
X635000D03*
Y444500D03*
X609600D03*
X584200D03*
X558800D03*
X533400D03*
X508000D03*
X482600D03*
X457200D03*
X431800D03*
X406400D03*
Y532099D03*
X431800D03*
X457200D03*
X482600D03*
X508000D03*
X533400D03*
X558800D03*
X584200D03*
X609600D03*
X635000D03*
Y684499D03*
X609600D03*
X584200D03*
X558800D03*
X533400D03*
X508000D03*
X482600D03*
X457200D03*
X431800D03*
X406400D03*
X381000D03*
X355600D03*
X330200D03*
X304800D03*
X279400D03*
Y532099D03*
X304800D03*
X330200D03*
X355600D03*
X381000D03*
Y444500D03*
X355600D03*
X330200D03*
X304800D03*
X279400D03*
G54D9501*
X330200Y330200D03*
Y355600D03*
Y381000D03*
X685800D03*
X711200D03*
Y355600D03*
X685800D03*
Y330200D03*
X711200D03*
Y304800D03*
X685800D03*
Y279400D03*
X711200D03*
Y406400D03*
Y431800D03*
Y457200D03*
X685800D03*
Y431800D03*
Y406400D03*
Y519399D03*
Y544799D03*
Y570199D03*
Y595599D03*
Y620999D03*
Y646399D03*
Y671799D03*
Y697199D03*
X711200D03*
Y671799D03*
Y646399D03*
Y620999D03*
Y595599D03*
Y570199D03*
Y544799D03*
Y519399D03*
X330200Y570199D03*
Y595599D03*
Y620999D03*
Y646399D03*
Y406400D03*
M02*