%FSDAX24Y24*%
%MOMM*%
%SFA1B1*%

%IPPOS*%
%ADD15C,0.253999*%
%ADD22C,0.200000*%
%ADD24C,0.203000*%
%ADD35C,0.127000*%
%ADD36C,0.507999*%
%ADD37R,1.142998X5.079990*%
%LN_4x40lcd_arduino_nano_piggyboard_(rev1.4)_-_2xpanel-1*%
%LPD*%
G54D15*
X345440Y415290D02*
X466090D01*
X345440Y311150D02*
Y415290D01*
X466090Y311150D02*
Y415290D01*
X345440Y311150D02*
X466090D01*
X495300D02*
X598170D01*
Y415290*
X495300Y311150D02*
Y415290D01*
X598170*
X537210Y393700D02*
X543560Y387350D01*
X558800*
X532130Y398780D02*
X537210Y393700D01*
X539750Y335280D02*
X558800D01*
X532130Y327660D02*
X539750Y335280D01*
X534670Y355600D02*
X558800D01*
X532130Y353060D02*
X534670Y355600D01*
Y370840D02*
X558800D01*
X532130Y373380D02*
X534670Y370840D01*
X400050Y373380D02*
X402590Y370840D01*
X427990*
X400050Y353060D02*
X402590Y355600D01*
X427990*
X400050Y327660D02*
X402590Y330200D01*
X407670*
X402590Y396240D02*
X407670D01*
X400050Y398780D02*
X402590Y396240D01*
X345440Y655289D02*
X466090D01*
X345440Y551149D02*
Y655289D01*
X466090Y551149D02*
Y655289D01*
X345440Y551149D02*
X466090D01*
X495300D02*
X598170D01*
Y655289*
X495300Y551149D02*
Y655289D01*
X598170*
X537210Y633699D02*
X543560Y627349D01*
X558800*
X532130Y638779D02*
X537210Y633699D01*
X539750Y575279D02*
X558800D01*
X532130Y567659D02*
X539750Y575279D01*
X534670Y595599D02*
X558800D01*
X532130Y593059D02*
X534670Y595599D01*
Y610839D02*
X558800D01*
X532130Y613379D02*
X534670Y610839D01*
X400050Y613379D02*
X402590Y610839D01*
X427990*
X400050Y593059D02*
X402590Y595599D01*
X427990*
X400050Y567659D02*
X402590Y570199D01*
X407670*
X402590Y636239D02*
X407670D01*
X400050Y638779D02*
X402590Y636239D01*
G54D22*
X673100Y266700D02*
Y469900D01*
X723900Y266700D02*
Y469900D01*
X673100D02*
X723900D01*
X673100Y266700D02*
X723900D01*
X673100Y506699D02*
Y709899D01*
X723900Y506699D02*
Y709899D01*
X673100D02*
X723900D01*
X673100Y506699D02*
X723900D01*
G54D24*
X590550Y421640D02*
Y426720D01*
X588010Y429260*
X585470Y426720*
Y421640*
Y425450*
X590550*
X582930Y426720D02*
Y421640D01*
Y424180*
X581660Y425450*
X580390Y426720*
X579120*
X570239Y429260D02*
Y421640D01*
X574049*
X575310Y422910*
Y425450*
X574049Y426720*
X570239*
X567699D02*
Y422910D01*
X566429Y421640*
X562619*
Y426720*
X560079Y421640D02*
X557539D01*
X558809*
Y426720*
X560079*
X553729Y421640D02*
Y426720D01*
X549919*
X548649Y425450*
Y421640*
X544839D02*
X542309D01*
X541039Y422910*
Y425450*
X542309Y426720*
X544839*
X546109Y425450*
Y422910*
X544839Y421640*
X523259Y429260D02*
Y421640D01*
X518179*
X510569Y427990D02*
X511839Y429260D01*
X514369*
X515639Y427990*
Y422910*
X514369Y421640*
X511839*
X510569Y422910*
X508029Y429260D02*
Y421640D01*
X504219*
X502949Y422910*
Y427990*
X504219Y429260*
X508029*
X458470Y421640D02*
Y426720D01*
X455930Y429260*
X453390Y426720*
Y421640*
Y425450*
X458470*
X450850Y426720D02*
Y421640D01*
Y424180*
X449580Y425450*
X448310Y426720*
X447040*
X438159Y429260D02*
Y421640D01*
X441969*
X443230Y422910*
Y425450*
X441969Y426720*
X438159*
X435619D02*
Y422910D01*
X434349Y421640*
X430539*
Y426720*
X427999Y421640D02*
X425459D01*
X426729*
Y426720*
X427999*
X421649Y421640D02*
Y426720D01*
X417839*
X416569Y425450*
Y421640*
X412759D02*
X410229D01*
X408959Y422910*
Y425450*
X410229Y426720*
X412759*
X414029Y425450*
Y422910*
X412759Y421640*
X391179Y429260D02*
Y421640D01*
X386099*
X378489Y427990D02*
X379759Y429260D01*
X382289*
X383559Y427990*
Y422910*
X382289Y421640*
X379759*
X378489Y422910*
X375949Y429260D02*
Y421640D01*
X372139*
X370869Y422910*
Y427990*
X372139Y429260*
X375949*
X309880Y334010D02*
X311150Y335280D01*
X313690*
X314960Y334010*
Y328930*
X313690Y327660*
X311150*
X309880Y328930*
Y331470*
X312420*
X307340Y327660D02*
Y335280D01*
X302260Y327660*
Y335280*
X299720D02*
Y327660D01*
X295919*
X294649Y328930*
Y334010*
X295919Y335280*
X299720*
X309880Y360680D02*
X314960D01*
Y356870*
X312420Y358140*
X311150*
X309880Y356870*
Y354330*
X311150Y353060*
X313690*
X314960Y354330*
X307340Y360680D02*
Y355600D01*
X304800Y353060*
X302260Y355600*
Y360680*
X313690Y384810D02*
Y377190D01*
Y379730*
X308610Y384810*
X312420Y381000*
X308610Y377190*
X306070Y381000D02*
X300990D01*
X314960Y403860D02*
Y408940D01*
X312420Y411480*
X309880Y408940*
Y403860*
Y407670*
X314960*
X307340D02*
X302260D01*
X304800Y410210D02*
Y405130D01*
X273050Y260350D02*
Y262890D01*
Y261620*
X280670*
X279400Y260350*
X304800D02*
X306070Y261620D01*
Y264160*
X304800Y265430*
X299720*
X298450Y264160*
Y261620*
X299720Y260350*
X304800*
X374650Y265430D02*
Y260350D01*
X379730Y265430*
X381000*
X382270Y264160*
Y261620*
X381000Y260350*
X406400D02*
X407670Y261620D01*
Y264160*
X406400Y265430*
X405130*
X403860Y264160*
Y262890*
Y264160*
X402590Y265430*
X401320*
X400050Y264160*
Y261620*
X401320Y260350*
X425450Y264160D02*
X433070D01*
X429260Y260350*
Y265430*
X458470D02*
Y260350D01*
X454660*
X455930Y262890*
Y264160*
X454660Y265430*
X452120*
X450850Y264160*
Y261620*
X452120Y260350*
X483870Y265430D02*
X482600Y262890D01*
X480060Y260350*
X477520*
X476250Y261620*
Y264160*
X477520Y265430*
X478790*
X480060Y264160*
Y260350*
X509270D02*
Y265430D01*
X508000*
X502920Y260350*
X501650*
X533400D02*
X534670Y261620D01*
Y264160*
X533400Y265430*
X532130*
X530860Y264160*
X529590Y265430*
X528320*
X527050Y264160*
Y261620*
X528320Y260350*
X529590*
X530860Y261620*
X532130Y260350*
X533400*
X530860Y261620D02*
Y264160D01*
X553720Y260350D02*
X552450Y261620D01*
Y264160*
X553720Y265430*
X558800*
X560070Y264160*
Y261620*
X558800Y260350*
X557530*
X556260Y261620*
Y265430*
X577850Y260350D02*
Y262890D01*
Y261620*
X585470*
X584200Y260350*
Y266700D02*
X585470Y267970D01*
Y270510*
X584200Y271780*
X579120*
X577850Y270510*
Y267970*
X579120Y266700*
X584200*
X603250Y260350D02*
Y262890D01*
Y261620*
X610870*
X609600Y260350*
X603250Y266700D02*
Y269240D01*
Y267970*
X610870*
X609600Y266700*
X628650Y260350D02*
Y262890D01*
Y261620*
X636270*
X635000Y260350*
X628650Y271780D02*
Y266700D01*
X633730Y271780*
X635000*
X636270Y270510*
Y267970*
X635000Y266700*
X628650Y455930D02*
Y458470D01*
Y457200*
X636270*
X635000Y455930*
Y462280D02*
X636270Y463550D01*
Y466090*
X635000Y467360*
X633730*
X632460Y466090*
Y464820*
Y466090*
X631190Y467360*
X629920*
X628650Y466090*
Y463550*
X629920Y462280*
X552450Y455930D02*
Y458470D01*
Y457200*
X560070*
X558800Y455930*
X552450Y466090D02*
X560070D01*
X556260Y462280*
Y467360*
X527050Y455930D02*
Y458470D01*
Y457200*
X534670*
X533400Y455930*
X534670Y467360D02*
Y462280D01*
X530860*
X532130Y464820*
Y466090*
X530860Y467360*
X528320*
X527050Y466090*
Y463550*
X528320Y462280*
X501650Y455930D02*
Y458470D01*
Y457200*
X509270*
X508000Y455930*
X509270Y467360D02*
X508000Y464820D01*
X505460Y462280*
X502920*
X501650Y463550*
Y466090*
X502920Y467360*
X504190*
X505460Y466090*
Y462280*
X476250Y455930D02*
Y458470D01*
Y457200*
X483870*
X482600Y455930*
X483870Y462280D02*
Y467360D01*
X482600*
X477520Y462280*
X476250*
X450850Y455930D02*
Y458470D01*
Y457200*
X458470*
X457200Y455930*
Y462280D02*
X458470Y463550D01*
Y466090*
X457200Y467360*
X455930*
X454660Y466090*
X453390Y467360*
X452120*
X450850Y466090*
Y463550*
X452120Y462280*
X453390*
X454660Y463550*
X455930Y462280*
X457200*
X454660Y463550D02*
Y466090D01*
X425450Y455930D02*
Y458470D01*
Y457200*
X433070*
X431800Y455930*
X426720Y462280D02*
X425450Y463550D01*
Y466090*
X426720Y467360*
X431800*
X433070Y466090*
Y463550*
X431800Y462280*
X430530*
X429260Y463550*
Y467360*
X582930Y330200D02*
X580390D01*
X581660*
Y337820*
X582930Y336550*
X571500Y337820D02*
X574040Y336550D01*
X576580Y334010*
Y331470*
X575310Y330200*
X572770*
X571500Y331470*
Y332740*
X572770Y334010*
X576580*
X582930Y383540D02*
X580390D01*
X581660*
Y391160*
X582930Y389890*
X572770Y383540D02*
Y391160D01*
X576580Y387350*
X571500*
X529590Y405130D02*
Y389890D01*
X521970*
X519430Y392430*
Y402590*
X521970Y405130*
X529590*
X506739Y389890D02*
Y405130D01*
X514350Y397510*
X504199*
X582930Y365760D02*
X580390D01*
X581660*
Y373380*
X582930Y372110*
X576580Y373380D02*
X571500D01*
Y372110*
X576580Y367030*
Y365760*
X582930Y347980D02*
X580390D01*
X581660*
Y355600*
X582930Y354330*
X571500Y355600D02*
X576580D01*
Y351790*
X574040Y353060*
X572770*
X571500Y351790*
Y349250*
X572770Y347980*
X575310*
X576580Y349250*
X453390D02*
X452120Y347980D01*
X449580*
X448310Y349250*
Y354330*
X449580Y355600*
X452120*
X453390Y354330*
Y353060*
X452120Y351790*
X448310*
X453390Y373380D02*
X448310D01*
Y372110*
X453390Y367030*
Y365760*
Y332729D02*
X450850D01*
X452120*
Y340339*
X453390Y339079*
X447040D02*
X445770Y340339D01*
X443230*
X441960Y339079*
Y337809*
X443230Y336539*
X441960Y335269*
Y333999*
X443230Y332729*
X445770*
X447040Y333999*
Y335269*
X445770Y336539*
X447040Y337809*
Y339079*
X445770Y336539D02*
X443230D01*
X278130Y321310D02*
X283210D01*
X285750Y323850*
X283210Y326390*
X278130*
X281940*
Y321310*
X283210Y328930D02*
X278130D01*
X280670*
X281940Y330200*
X283210Y331470*
Y332740*
X285750Y341619D02*
X278130D01*
Y337809*
X279400Y336550*
X281940*
X283210Y337809*
Y341619*
Y344159D02*
X279400D01*
X278130Y345429*
Y349239*
X283210*
X278130Y351779D02*
Y354319D01*
Y353049*
X283210*
Y351779*
X278130Y358129D02*
X283210D01*
Y361939*
X281940Y363209*
X278130*
Y367019D02*
Y369549D01*
X279400Y370819*
X281940*
X283210Y369549*
Y367019*
X281940Y365749*
X279400*
X278130Y367019*
Y380979D02*
X285750D01*
X278130Y386059*
X285750*
X283210Y389869D02*
Y392409D01*
X281940Y393679*
X278130*
Y389869*
X279400Y388599*
X280670Y389869*
Y393679*
X278130Y396219D02*
X283210D01*
Y400019*
X281940Y401289*
X278130*
Y405099D02*
Y407639D01*
X279400Y408909*
X281940*
X283210Y407639*
Y405099*
X281940Y403829*
X279400*
X278130Y405099*
X590550Y309880D02*
X599440D01*
Y314319*
X597959Y315799*
X594989*
X593509Y314319*
Y309880*
X590550Y318770D02*
Y321729D01*
Y320249*
X596469*
Y318770*
X590550Y326169D02*
X596469D01*
Y330619*
X594989Y332099*
X590550*
Y343949D02*
X599440D01*
X596469Y346909*
X599440Y349869*
X590550*
X596469Y354319D02*
Y357279D01*
X594989Y358759*
X590550*
Y354319*
X592029Y352829*
X593509Y354319*
Y358759*
X587589Y361719D02*
X596469D01*
Y366169*
X594989Y367649*
X592029*
X590550Y366169*
Y361719*
X587589Y370609D02*
X596469D01*
Y375049*
X594989Y376529*
X592029*
X590550Y375049*
Y370609*
Y379499D02*
Y382459D01*
Y380979*
X596469*
Y379499*
X590550Y386899D02*
X596469D01*
Y391349*
X594989Y392829*
X590550*
X587589Y398749D02*
Y400229D01*
X589069Y401709*
X596469*
Y397269*
X594989Y395789*
X592029*
X590550Y397269*
Y401709*
X453390Y398769D02*
X450850D01*
X452120*
Y406379*
X453390Y405119*
X447040Y400039D02*
X445770Y398769D01*
X443230*
X441960Y400039*
Y405119*
X443230Y406379*
X445770*
X447040Y405119*
Y403849*
X445770Y402579*
X441960*
X264209Y316230D02*
X271829D01*
X268019Y312420*
Y317500*
X269289Y320040D02*
X264209Y325120D01*
X266749Y322580*
X269289Y325120*
X264209Y320040*
Y331459D02*
X271829D01*
X268019Y327660*
Y332729*
X270559Y335269D02*
X271829Y336539D01*
Y339079*
X270559Y340349*
X265479*
X264209Y339079*
Y336539*
X265479Y335269*
X270559*
X271829Y342889D02*
X264209D01*
Y347969*
X270559Y355589D02*
X271829Y354319D01*
Y351779*
X270559Y350509*
X265479*
X264209Y351779*
Y354319*
X265479Y355589*
X271829Y358129D02*
X264209D01*
Y361929*
X265479Y363199*
X270559*
X271829Y361929*
Y358129*
X264209Y373359D02*
Y377169D01*
X265479Y378439*
X266749Y377169*
Y374629*
X268019Y373359*
X269289Y374629*
Y378439*
X271829Y380979D02*
X264209D01*
X268019*
X269289Y382249*
Y384789*
X268019Y386059*
X264209*
Y388599D02*
Y391129D01*
Y389859*
X269289*
Y388599*
X264209Y398749D02*
Y396209D01*
X265479Y394939*
X268019*
X269289Y396209*
Y398749*
X268019Y400019*
X266749*
Y394939*
X264209Y402559D02*
Y405099D01*
Y403829*
X271829*
Y402559*
Y413989D02*
X264209D01*
Y410179*
X265479Y408909*
X268019*
X269289Y410179*
Y413989*
X529590Y381000D02*
Y365760D01*
X521970*
X519430Y368300*
Y378460*
X521970Y381000*
X529590*
X504199D02*
X514350D01*
Y373380*
X509279Y375920*
X506739*
X504199Y373380*
Y368300*
X506739Y365760*
X511819*
X514350Y368300*
X529590Y356019D02*
Y340779D01*
X521970*
X519430Y343319*
Y353479*
X521970Y356019*
X529590*
X504199D02*
X509279Y353479D01*
X514350Y348399*
Y343319*
X511819Y340779*
X506739*
X504199Y343319*
Y345859*
X506739Y348399*
X514350*
X529590Y331470D02*
Y316230D01*
X521970*
X519430Y318770*
Y328930*
X521970Y331470*
X529590*
X514350D02*
X504199D01*
Y328930*
X514350Y318770*
Y316230*
X394970D02*
Y331470D01*
X387350*
X384810Y328930*
Y323850*
X387350Y321310*
X394970*
X389890D02*
X384810Y316230D01*
X369579Y328930D02*
X372119Y331470D01*
X377199*
X379730Y328930*
Y326390*
X377199Y323850*
X372119*
X369579Y321310*
Y318770*
X372119Y316230*
X377199*
X379730Y318770*
X394970Y340779D02*
Y356019D01*
X387350*
X384810Y353479*
Y348399*
X387350Y345859*
X394970*
X379730Y356019D02*
Y340779D01*
X374659Y345859*
X369579Y340779*
Y356019*
X364499Y340779D02*
Y356019D01*
X359419Y350939*
X354339Y356019*
Y340779*
X384810Y381000D02*
X394970D01*
Y365760*
X384810*
X394970Y373380D02*
X389890D01*
X369579Y365760D02*
X379730D01*
X369579Y375920*
Y378460*
X372119Y381000*
X377199*
X379730Y378460*
X384810Y405130D02*
X394970D01*
Y389890*
X384810*
X394970Y397510D02*
X389890D01*
X379730Y389890D02*
X374659D01*
X377199*
Y405130*
X379730Y402590*
X448310Y380989D02*
X453390D01*
X448310Y386069*
Y387339*
X449580Y388599*
X452120*
X453390Y387339*
X449580Y314949D02*
Y322559D01*
X453390Y318759*
X448310*
X590550Y661639D02*
Y666719D01*
X588010Y669259*
X585470Y666719*
Y661639*
Y665449*
X590550*
X582930Y666719D02*
Y661639D01*
Y664179*
X581660Y665449*
X580390Y666719*
X579120*
X570239Y669259D02*
Y661639D01*
X574049*
X575310Y662909*
Y665449*
X574049Y666719*
X570239*
X567699D02*
Y662909D01*
X566429Y661639*
X562619*
Y666719*
X560079Y661639D02*
X557539D01*
X558809*
Y666719*
X560079*
X553729Y661639D02*
Y666719D01*
X549919*
X548649Y665449*
Y661639*
X544839D02*
X542309D01*
X541039Y662909*
Y665449*
X542309Y666719*
X544839*
X546109Y665449*
Y662909*
X544839Y661639*
X523259Y669259D02*
Y661639D01*
X518179*
X510569Y667989D02*
X511839Y669259D01*
X514369*
X515639Y667989*
Y662909*
X514369Y661639*
X511839*
X510569Y662909*
X508029Y669259D02*
Y661639D01*
X504219*
X502949Y662909*
Y667989*
X504219Y669259*
X508029*
X458470Y661639D02*
Y666719D01*
X455930Y669259*
X453390Y666719*
Y661639*
Y665449*
X458470*
X450850Y666719D02*
Y661639D01*
Y664179*
X449580Y665449*
X448310Y666719*
X447040*
X438159Y669259D02*
Y661639D01*
X441969*
X443230Y662909*
Y665449*
X441969Y666719*
X438159*
X435619D02*
Y662909D01*
X434349Y661639*
X430539*
Y666719*
X427999Y661639D02*
X425459D01*
X426729*
Y666719*
X427999*
X421649Y661639D02*
Y666719D01*
X417839*
X416569Y665449*
Y661639*
X412759D02*
X410229D01*
X408959Y662909*
Y665449*
X410229Y666719*
X412759*
X414029Y665449*
Y662909*
X412759Y661639*
X391179Y669259D02*
Y661639D01*
X386099*
X378489Y667989D02*
X379759Y669259D01*
X382289*
X383559Y667989*
Y662909*
X382289Y661639*
X379759*
X378489Y662909*
X375949Y669259D02*
Y661639D01*
X372139*
X370869Y662909*
Y667989*
X372139Y669259*
X375949*
X309880Y574009D02*
X311150Y575279D01*
X313690*
X314960Y574009*
Y568929*
X313690Y567659*
X311150*
X309880Y568929*
Y571469*
X312420*
X307340Y567659D02*
Y575279D01*
X302260Y567659*
Y575279*
X299720D02*
Y567659D01*
X295919*
X294649Y568929*
Y574009*
X295919Y575279*
X299720*
X309880Y600679D02*
X314960D01*
Y596869*
X312420Y598139*
X311150*
X309880Y596869*
Y594329*
X311150Y593059*
X313690*
X314960Y594329*
X307340Y600679D02*
Y595599D01*
X304800Y593059*
X302260Y595599*
Y600679*
X313690Y624809D02*
Y617189D01*
Y619729*
X308610Y624809*
X312420Y620999*
X308610Y617189*
X306070Y620999D02*
X300990D01*
X314960Y643859D02*
Y648939D01*
X312420Y651479*
X309880Y648939*
Y643859*
Y647669*
X314960*
X307340D02*
X302260D01*
X304800Y650209D02*
Y645129D01*
X273050Y500349D02*
Y502889D01*
Y501619*
X280670*
X279400Y500349*
X304800D02*
X306070Y501619D01*
Y504159*
X304800Y505429*
X299720*
X298450Y504159*
Y501619*
X299720Y500349*
X304800*
X374650Y505429D02*
Y500349D01*
X379730Y505429*
X381000*
X382270Y504159*
Y501619*
X381000Y500349*
X406400D02*
X407670Y501619D01*
Y504159*
X406400Y505429*
X405130*
X403860Y504159*
Y502889*
Y504159*
X402590Y505429*
X401320*
X400050Y504159*
Y501619*
X401320Y500349*
X425450Y504159D02*
X433070D01*
X429260Y500349*
Y505429*
X458470D02*
Y500349D01*
X454660*
X455930Y502889*
Y504159*
X454660Y505429*
X452120*
X450850Y504159*
Y501619*
X452120Y500349*
X483870Y505429D02*
X482600Y502889D01*
X480060Y500349*
X477520*
X476250Y501619*
Y504159*
X477520Y505429*
X478790*
X480060Y504159*
Y500349*
X509270D02*
Y505429D01*
X508000*
X502920Y500349*
X501650*
X533400D02*
X534670Y501619D01*
Y504159*
X533400Y505429*
X532130*
X530860Y504159*
X529590Y505429*
X528320*
X527050Y504159*
Y501619*
X528320Y500349*
X529590*
X530860Y501619*
X532130Y500349*
X533400*
X530860Y501619D02*
Y504159D01*
X553720Y500349D02*
X552450Y501619D01*
Y504159*
X553720Y505429*
X558800*
X560070Y504159*
Y501619*
X558800Y500349*
X557530*
X556260Y501619*
Y505429*
X577850Y500349D02*
Y502889D01*
Y501619*
X585470*
X584200Y500349*
Y506699D02*
X585470Y507969D01*
Y510509*
X584200Y511779*
X579120*
X577850Y510509*
Y507969*
X579120Y506699*
X584200*
X603250Y500349D02*
Y502889D01*
Y501619*
X610870*
X609600Y500349*
X603250Y506699D02*
Y509239D01*
Y507969*
X610870*
X609600Y506699*
X628650Y500349D02*
Y502889D01*
Y501619*
X636270*
X635000Y500349*
X628650Y511779D02*
Y506699D01*
X633730Y511779*
X635000*
X636270Y510509*
Y507969*
X635000Y506699*
X628650Y695929D02*
Y698469D01*
Y697199*
X636270*
X635000Y695929*
Y702279D02*
X636270Y703549D01*
Y706089*
X635000Y707359*
X633730*
X632460Y706089*
Y704819*
Y706089*
X631190Y707359*
X629920*
X628650Y706089*
Y703549*
X629920Y702279*
X552450Y695929D02*
Y698469D01*
Y697199*
X560070*
X558800Y695929*
X552450Y706089D02*
X560070D01*
X556260Y702279*
Y707359*
X527050Y695929D02*
Y698469D01*
Y697199*
X534670*
X533400Y695929*
X534670Y707359D02*
Y702279D01*
X530860*
X532130Y704819*
Y706089*
X530860Y707359*
X528320*
X527050Y706089*
Y703549*
X528320Y702279*
X501650Y695929D02*
Y698469D01*
Y697199*
X509270*
X508000Y695929*
X509270Y707359D02*
X508000Y704819D01*
X505460Y702279*
X502920*
X501650Y703549*
Y706089*
X502920Y707359*
X504190*
X505460Y706089*
Y702279*
X476250Y695929D02*
Y698469D01*
Y697199*
X483870*
X482600Y695929*
X483870Y702279D02*
Y707359D01*
X482600*
X477520Y702279*
X476250*
X450850Y695929D02*
Y698469D01*
Y697199*
X458470*
X457200Y695929*
Y702279D02*
X458470Y703549D01*
Y706089*
X457200Y707359*
X455930*
X454660Y706089*
X453390Y707359*
X452120*
X450850Y706089*
Y703549*
X452120Y702279*
X453390*
X454660Y703549*
X455930Y702279*
X457200*
X454660Y703549D02*
Y706089D01*
X425450Y695929D02*
Y698469D01*
Y697199*
X433070*
X431800Y695929*
X426720Y702279D02*
X425450Y703549D01*
Y706089*
X426720Y707359*
X431800*
X433070Y706089*
Y703549*
X431800Y702279*
X430530*
X429260Y703549*
Y707359*
X582930Y570199D02*
X580390D01*
X581660*
Y577819*
X582930Y576549*
X571500Y577819D02*
X574040Y576549D01*
X576580Y574009*
Y571469*
X575310Y570199*
X572770*
X571500Y571469*
Y572739*
X572770Y574009*
X576580*
X582930Y623539D02*
X580390D01*
X581660*
Y631159*
X582930Y629889*
X572770Y623539D02*
Y631159D01*
X576580Y627349*
X571500*
X529590Y645129D02*
Y629889D01*
X521970*
X519430Y632429*
Y642589*
X521970Y645129*
X529590*
X506739Y629889D02*
Y645129D01*
X514350Y637509*
X504199*
X582930Y605759D02*
X580390D01*
X581660*
Y613379*
X582930Y612109*
X576580Y613379D02*
X571500D01*
Y612109*
X576580Y607029*
Y605759*
X582930Y587979D02*
X580390D01*
X581660*
Y595599*
X582930Y594329*
X571500Y595599D02*
X576580D01*
Y591789*
X574040Y593059*
X572770*
X571500Y591789*
Y589249*
X572770Y587979*
X575310*
X576580Y589249*
X453390D02*
X452120Y587979D01*
X449580*
X448310Y589249*
Y594329*
X449580Y595599*
X452120*
X453390Y594329*
Y593059*
X452120Y591789*
X448310*
X453390Y613379D02*
X448310D01*
Y612109*
X453390Y607029*
Y605759*
Y572729D02*
X450850D01*
X452120*
Y580339*
X453390Y579079*
X447040D02*
X445770Y580339D01*
X443230*
X441960Y579079*
Y577809*
X443230Y576539*
X441960Y575269*
Y573999*
X443230Y572729*
X445770*
X447040Y573999*
Y575269*
X445770Y576539*
X447040Y577809*
Y579079*
X445770Y576539D02*
X443230D01*
X278130Y561309D02*
X283210D01*
X285750Y563849*
X283210Y566389*
X278130*
X281940*
Y561309*
X283210Y568929D02*
X278130D01*
X280670*
X281940Y570199*
X283210Y571469*
Y572739*
X285750Y581619D02*
X278130D01*
Y577809*
X279400Y576549*
X281940*
X283210Y577809*
Y581619*
Y584159D02*
X279400D01*
X278130Y585429*
Y589239*
X283210*
X278130Y591779D02*
Y594319D01*
Y593049*
X283210*
Y591779*
X278130Y598129D02*
X283210D01*
Y601939*
X281940Y603209*
X278130*
Y607019D02*
Y609549D01*
X279400Y610819*
X281940*
X283210Y609549*
Y607019*
X281940Y605749*
X279400*
X278130Y607019*
Y620979D02*
X285750D01*
X278130Y626059*
X285750*
X283210Y629869D02*
Y632409D01*
X281940Y633679*
X278130*
Y629869*
X279400Y628599*
X280670Y629869*
Y633679*
X278130Y636219D02*
X283210D01*
Y640019*
X281940Y641289*
X278130*
Y645099D02*
Y647639D01*
X279400Y648909*
X281940*
X283210Y647639*
Y645099*
X281940Y643829*
X279400*
X278130Y645099*
X590550Y549879D02*
X599440D01*
Y554319*
X597959Y555799*
X594989*
X593509Y554319*
Y549879*
X590550Y558769D02*
Y561729D01*
Y560249*
X596469*
Y558769*
X590550Y566169D02*
X596469D01*
Y570619*
X594989Y572099*
X590550*
Y583949D02*
X599440D01*
X596469Y586909*
X599440Y589869*
X590550*
X596469Y594319D02*
Y597279D01*
X594989Y598759*
X590550*
Y594319*
X592029Y592829*
X593509Y594319*
Y598759*
X587589Y601719D02*
X596469D01*
Y606169*
X594989Y607649*
X592029*
X590550Y606169*
Y601719*
X587589Y610609D02*
X596469D01*
Y615049*
X594989Y616529*
X592029*
X590550Y615049*
Y610609*
Y619499D02*
Y622459D01*
Y620979*
X596469*
Y619499*
X590550Y626899D02*
X596469D01*
Y631349*
X594989Y632829*
X590550*
X587589Y638749D02*
Y640229D01*
X589069Y641709*
X596469*
Y637269*
X594989Y635789*
X592029*
X590550Y637269*
Y641709*
X453390Y638769D02*
X450850D01*
X452120*
Y646379*
X453390Y645119*
X447040Y640039D02*
X445770Y638769D01*
X443230*
X441960Y640039*
Y645119*
X443230Y646379*
X445770*
X447040Y645119*
Y643849*
X445770Y642579*
X441960*
X264209Y556229D02*
X271829D01*
X268019Y552419*
Y557499*
X269289Y560039D02*
X264209Y565119D01*
X266749Y562579*
X269289Y565119*
X264209Y560039*
Y571459D02*
X271829D01*
X268019Y567659*
Y572729*
X270559Y575269D02*
X271829Y576539D01*
Y579079*
X270559Y580349*
X265479*
X264209Y579079*
Y576539*
X265479Y575269*
X270559*
X271829Y582889D02*
X264209D01*
Y587969*
X270559Y595589D02*
X271829Y594319D01*
Y591779*
X270559Y590509*
X265479*
X264209Y591779*
Y594319*
X265479Y595589*
X271829Y598129D02*
X264209D01*
Y601929*
X265479Y603199*
X270559*
X271829Y601929*
Y598129*
X264209Y613359D02*
Y617169D01*
X265479Y618439*
X266749Y617169*
Y614629*
X268019Y613359*
X269289Y614629*
Y618439*
X271829Y620979D02*
X264209D01*
X268019*
X269289Y622249*
Y624789*
X268019Y626059*
X264209*
Y628599D02*
Y631129D01*
Y629859*
X269289*
Y628599*
X264209Y638749D02*
Y636209D01*
X265479Y634939*
X268019*
X269289Y636209*
Y638749*
X268019Y640019*
X266749*
Y634939*
X264209Y642559D02*
Y645099D01*
Y643829*
X271829*
Y642559*
Y653989D02*
X264209D01*
Y650179*
X265479Y648909*
X268019*
X269289Y650179*
Y653989*
X529590Y620999D02*
Y605759D01*
X521970*
X519430Y608299*
Y618459*
X521970Y620999*
X529590*
X504199D02*
X514350D01*
Y613379*
X509279Y615919*
X506739*
X504199Y613379*
Y608299*
X506739Y605759*
X511819*
X514350Y608299*
X529590Y596019D02*
Y580779D01*
X521970*
X519430Y583319*
Y593479*
X521970Y596019*
X529590*
X504199D02*
X509279Y593479D01*
X514350Y588399*
Y583319*
X511819Y580779*
X506739*
X504199Y583319*
Y585859*
X506739Y588399*
X514350*
X529590Y571469D02*
Y556229D01*
X521970*
X519430Y558769*
Y568929*
X521970Y571469*
X529590*
X514350D02*
X504199D01*
Y568929*
X514350Y558769*
Y556229*
X394970D02*
Y571469D01*
X387350*
X384810Y568929*
Y563849*
X387350Y561309*
X394970*
X389890D02*
X384810Y556229D01*
X369579Y568929D02*
X372119Y571469D01*
X377199*
X379730Y568929*
Y566389*
X377199Y563849*
X372119*
X369579Y561309*
Y558769*
X372119Y556229*
X377199*
X379730Y558769*
X394970Y580779D02*
Y596019D01*
X387350*
X384810Y593479*
Y588399*
X387350Y585859*
X394970*
X379730Y596019D02*
Y580779D01*
X374659Y585859*
X369579Y580779*
Y596019*
X364499Y580779D02*
Y596019D01*
X359419Y590939*
X354339Y596019*
Y580779*
X384810Y620999D02*
X394970D01*
Y605759*
X384810*
X394970Y613379D02*
X389890D01*
X369579Y605759D02*
X379730D01*
X369579Y615919*
Y618459*
X372119Y620999*
X377199*
X379730Y618459*
X384810Y645129D02*
X394970D01*
Y629889*
X384810*
X394970Y637509D02*
X389890D01*
X379730Y629889D02*
X374659D01*
X377199*
Y645129*
X379730Y642589*
X448310Y620989D02*
X453390D01*
X448310Y626069*
Y627339*
X449580Y628599*
X452120*
X453390Y627339*
X449580Y554949D02*
Y562559D01*
X453390Y558759*
X448310*
G54D35*
X411480Y381000D02*
Y411480D01*
Y381000D02*
X429260D01*
Y411480*
X411480D02*
X429260D01*
Y314960D02*
Y345440D01*
X411480D02*
X429260D01*
X411480Y314960D02*
Y345440D01*
Y314960D02*
X429260D01*
X411480Y620999D02*
Y651479D01*
Y620999D02*
X429260D01*
Y651479*
X411480D02*
X429260D01*
Y554959D02*
Y585439D01*
X411480D02*
X429260D01*
X411480Y554959D02*
Y585439D01*
Y554959D02*
X429260D01*
G54D36*
X666739Y341630D02*
X646430D01*
Y355169*
X663359Y375489D02*
X666739Y372099D01*
Y365329*
X663359Y361939*
X649819*
X646430Y365329*
Y372099*
X649819Y375489*
X666739Y382259D02*
X646430D01*
Y392409*
X649819Y395799*
X663359*
X666739Y392409*
Y382259*
Y581629D02*
X646430D01*
Y595169*
X663359Y615489D02*
X666739Y612099D01*
Y605329*
X663359Y601939*
X649819*
X646430Y605329*
Y612099*
X649819Y615489*
X666739Y622259D02*
X646430D01*
Y632409*
X649819Y635799*
X663359*
X666739Y632409*
Y622259*
G54D37*
X729619Y368300D03*
Y608299D03*
M02*