%FSDAX24Y24*%
%MOMM*%
%SFA1B1*%

%IPPOS*%
%ADD15C,0.253999*%
%ADD21C,0.250000*%
%ADD22C,0.200000*%
%ADD23C,0.152000*%
%ADD24C,0.203000*%
%LN_4x40lcd_arduino_nano_piggyboard_(rev1.4)_-_2xpanel-1*%
%LPD*%
G54D15*
X260350Y488950D02*
X730250D01*
X483870Y403860D02*
D01*
X482984Y403829*
X482102Y403736*
X481229Y403582*
X480369Y403368*
X479526Y403093*
X478704Y402761*
X477907Y402373*
X477140Y401930*
X476404Y401434*
X475706Y400888*
X475047Y400295*
X474431Y399657*
X473862Y398978*
X473341Y398261*
X472871Y397510*
X472455Y396727*
X472094Y395917*
X471791Y395084*
X471547Y394232*
X471362Y393365*
X471239Y392487*
X471177Y391602*
X471170Y391160*
X520499Y339489D02*
X532999D01*
X482999D02*
X495499D01*
X527999Y389489D02*
X532999D01*
X482999D02*
X487999D01*
X532999Y339489D02*
Y389489D01*
X482999Y339489D02*
Y389489D01*
X496570Y406400D02*
Y399629D01*
X499949Y403009D02*
X493179D01*
X471170Y383540D02*
Y376769D01*
X307340Y355600D02*
X314109D01*
X310729Y358979D02*
Y352209D01*
X307340Y406400D02*
X314109D01*
X310729Y409779D02*
Y403009D01*
X483870Y643859D02*
D01*
X482984Y643829*
X482102Y643736*
X481229Y643582*
X480369Y643367*
X479526Y643093*
X478704Y642761*
X477907Y642373*
X477140Y641930*
X476404Y641434*
X475706Y640888*
X475047Y640295*
X474431Y639657*
X473862Y638978*
X473341Y638261*
X472871Y637509*
X472455Y636727*
X472094Y635917*
X471791Y635084*
X471547Y634232*
X471362Y633365*
X471239Y632487*
X471177Y631603*
X471170Y631159*
X520499Y579489D02*
X532999D01*
X482999D02*
X495499D01*
X527999Y629489D02*
X532999D01*
X482999D02*
X487999D01*
X532999Y579489D02*
Y629489D01*
X482999Y579489D02*
Y629489D01*
X496570Y646399D02*
Y639629D01*
X499949Y643009D02*
X493179D01*
X471170Y623539D02*
Y616769D01*
X307340Y595599D02*
X314109D01*
X310729Y598979D02*
Y592209D01*
X307340Y646399D02*
X314109D01*
X310729Y649779D02*
Y643009D01*
G54D21*
X448079Y332259D02*
D01*
X448076Y332347*
X448067Y332433*
X448052Y332519*
X448031Y332604*
X448004Y332687*
X447971Y332768*
X447933Y332846*
X447889Y332922*
X447841Y332994*
X447787Y333063*
X447729Y333128*
X447666Y333188*
X447599Y333244*
X447528Y333296*
X447454Y333342*
X447377Y333383*
X447298Y333418*
X447216Y333448*
X447132Y333472*
X447046Y333490*
X446960Y333503*
X446873Y333509*
X446786*
X446699Y333503*
X446612Y333490*
X446527Y333472*
X446443Y333448*
X446361Y333418*
X446281Y333383*
X446204Y333342*
X446130Y333296*
X446060Y333244*
X445993Y333188*
X445930Y333128*
X445872Y333063*
X445818Y332994*
X445769Y332922*
X445726Y332846*
X445687Y332768*
X445655Y332687*
X445628Y332604*
X445607Y332519*
X445591Y332433*
X445582Y332347*
X445579Y332259*
X445582Y332172*
X445591Y332085*
X445607Y332000*
X445628Y331915*
X445655Y331832*
X445687Y331751*
X445726Y331672*
X445769Y331597*
X445818Y331525*
X445872Y331456*
X445930Y331391*
X445993Y331331*
X446060Y331274*
X446130Y331223*
X446204Y331177*
X446281Y331136*
X446361Y331100*
X446443Y331070*
X446527Y331047*
X446612Y331028*
X446699Y331016*
X446786Y331010*
X446873*
X446960Y331016*
X447046Y331028*
X447132Y331047*
X447216Y331070*
X447298Y331100*
X447377Y331136*
X447454Y331177*
X447528Y331223*
X447599Y331274*
X447666Y331331*
X447729Y331391*
X447787Y331456*
X447841Y331525*
X447889Y331597*
X447933Y331672*
X447971Y331751*
X448004Y331832*
X448031Y331915*
X448052Y332000*
X448067Y332085*
X448076Y332172*
X448079Y332259*
Y572259D02*
D01*
X448076Y572347*
X448067Y572433*
X448052Y572519*
X448031Y572604*
X448004Y572687*
X447971Y572768*
X447933Y572846*
X447889Y572922*
X447841Y572994*
X447787Y573063*
X447729Y573128*
X447666Y573188*
X447599Y573244*
X447528Y573296*
X447454Y573342*
X447377Y573383*
X447298Y573418*
X447216Y573448*
X447132Y573472*
X447046Y573490*
X446960Y573503*
X446873Y573509*
X446786*
X446699Y573503*
X446612Y573490*
X446527Y573472*
X446443Y573448*
X446361Y573418*
X446281Y573383*
X446204Y573342*
X446130Y573296*
X446060Y573244*
X445993Y573188*
X445930Y573128*
X445872Y573063*
X445818Y572994*
X445769Y572922*
X445726Y572846*
X445687Y572768*
X445655Y572687*
X445628Y572604*
X445607Y572519*
X445591Y572433*
X445582Y572347*
X445579Y572259*
X445582Y572172*
X445591Y572085*
X445607Y571999*
X445628Y571915*
X445655Y571832*
X445687Y571751*
X445726Y571672*
X445769Y571597*
X445818Y571525*
X445872Y571456*
X445930Y571391*
X445993Y571330*
X446060Y571274*
X446130Y571223*
X446204Y571177*
X446281Y571136*
X446361Y571100*
X446443Y571070*
X446527Y571047*
X446612Y571028*
X446699Y571016*
X446786Y571010*
X446873*
X446960Y571016*
X447046Y571028*
X447132Y571047*
X447216Y571070*
X447298Y571100*
X447377Y571136*
X447454Y571177*
X447528Y571223*
X447599Y571274*
X447666Y571330*
X447729Y571391*
X447787Y571456*
X447841Y571525*
X447889Y571597*
X447933Y571672*
X447971Y571751*
X448004Y571832*
X448031Y571915*
X448052Y571999*
X448067Y572085*
X448076Y572172*
X448079Y572259*
G54D22*
X304800Y368300D02*
Y419100D01*
Y368300D02*
X317500D01*
X304800Y419100D02*
X317500D01*
Y368300D02*
Y419100D01*
X270929Y410629D02*
X304800D01*
X266700Y406400D02*
X270929Y410629D01*
X266700Y406400D02*
X270929Y402169D01*
X304800D01*
X270929Y385229D02*
X304800D01*
X266700Y381000D02*
X270929Y385229D01*
X266700Y381000D02*
X270929Y376769D01*
X304800*
X403829Y399259D02*
X431829D01*
X403829Y332259D02*
X431829D01*
X403829D02*
Y399259D01*
X431829Y332259D02*
Y399259D01*
X304800Y317500D02*
Y368300D01*
Y317500D02*
X317500D01*
X304800Y368300D02*
X317500D01*
Y317500D02*
Y368300D01*
X270929Y359829D02*
X304800D01*
X266700Y355600D02*
X270929Y359829D01*
X266700Y355600D02*
X270929Y351369D01*
X304800D01*
X270929Y334429D02*
X304800D01*
X266700Y330200D02*
X270929Y334429D01*
X266700Y330200D02*
X270929Y325969D01*
X304800*
Y608299D02*
Y659099D01*
Y608299D02*
X317500D01*
X304800Y659099D02*
X317500D01*
Y608299D02*
Y659099D01*
X270929Y650629D02*
X304800D01*
X266700Y646399D02*
X270929Y650629D01*
X266700Y646399D02*
X270929Y642169D01*
X304800D01*
X270929Y625229D02*
X304800D01*
X266700Y620999D02*
X270929Y625229D01*
X266700Y620999D02*
X270929Y616769D01*
X304800*
X403829Y639259D02*
X431829D01*
X403829Y572259D02*
X431829D01*
X403829D02*
Y639259D01*
X431829Y572259D02*
Y639259D01*
X304800Y557499D02*
Y608299D01*
Y557499D02*
X317500D01*
X304800Y608299D02*
X317500D01*
Y557499D02*
Y608299D01*
X270929Y599829D02*
X304800D01*
X266700Y595599D02*
X270929Y599829D01*
X266700Y595599D02*
X270929Y591369D01*
X304800D01*
X270929Y574429D02*
X304800D01*
X266700Y570199D02*
X270929Y574429D01*
X266700Y570199D02*
X270929Y565969D01*
X304800*
G54D23*
X631299Y330899D02*
X641799D01*
X631299Y354899D02*
X641799D01*
X602799D02*
X613299D01*
X602799Y330899D02*
X613299D01*
X641799D02*
Y354899D01*
X602799Y330899D02*
Y354899D01*
X551999D02*
X562499D01*
X551999Y330899D02*
X562499D01*
X580499D02*
X590999D01*
X580499Y354899D02*
X590999D01*
X551999Y330899D02*
Y354899D01*
X590999Y330899D02*
Y354899D01*
X631299Y570899D02*
X641799D01*
X631299Y594899D02*
X641799D01*
X602799D02*
X613299D01*
X602799Y570899D02*
X613299D01*
X641799D02*
Y594899D01*
X602799Y570899D02*
Y594899D01*
X551999D02*
X562499D01*
X551999Y570899D02*
X562499D01*
X580499D02*
X590999D01*
X580499Y594899D02*
X590999D01*
X551999Y570899D02*
Y594899D01*
X590999Y570899D02*
Y594899D01*
G54D24*
X487680Y322580D02*
X483870D01*
X482600Y321310*
Y318770*
X483870Y317500*
X487680*
X491490D02*
X494030D01*
X495300Y318770*
Y321310*
X494030Y322580*
X491490*
X490220Y321310*
Y318770*
X491490Y317500*
X497840D02*
Y322580D01*
X501639*
X502909Y321310*
Y317500*
X506719Y323850D02*
Y322580D01*
X505449*
X507989*
X506719*
Y318770*
X507989Y317500*
X511799Y322580D02*
Y317500D01*
Y320040*
X513069Y321310*
X514339Y322580*
X515609*
X520689D02*
X523229D01*
X524499Y321310*
Y317500*
X520689*
X519419Y318770*
X520689Y320040*
X524499*
X527039Y317500D02*
X530839D01*
X532109Y318770*
X530839Y320040*
X528309*
X527039Y321310*
X528309Y322580*
X532109*
X535919Y323850D02*
Y322580D01*
X534649*
X537189*
X535919*
Y318770*
X537189Y317500*
X654050Y336550D02*
X646430D01*
Y340360*
X647700Y341630*
X650240*
X651510Y340360*
Y336550*
Y339090D02*
X654050Y341630D01*
X650240Y344170D02*
Y349250D01*
X647700Y346710D02*
X652780D01*
X548640Y336550D02*
X541020D01*
Y340360*
X542290Y341630*
X544830*
X546100Y340360*
Y336550*
Y339090D02*
X548640Y341630D01*
X544830Y344170D02*
Y349250D01*
X410210Y407670D02*
Y412750D01*
X408940Y414020*
X406400*
X405130Y412750*
Y407670*
X406400Y406400*
X408940*
X407670Y408940D02*
X410210Y406400D01*
X408940D02*
X410210Y407670D01*
X345440Y403860D02*
Y408940D01*
X347980Y411480*
X350520Y408940*
Y403860*
Y407670*
X345440*
X353060D02*
X358140D01*
X355600Y410210D02*
Y405130D01*
X346710Y384810D02*
Y377190D01*
Y379730*
X351790Y384810*
X347980Y381000*
X351790Y377190*
X354330Y381000D02*
X359410D01*
X549910Y317500D02*
Y323850D01*
Y321310*
X548640*
X551180*
X549910*
Y323850*
X551180Y325120*
X554990Y317500D02*
X557530D01*
X556260*
Y322580*
X554990*
X561340D02*
X566409Y317500D01*
X563880Y320040*
X566409Y322580*
X561340Y317500*
X572759D02*
X570219D01*
X568949Y318770*
Y321310*
X570219Y322580*
X572759*
X574029Y321310*
Y320040*
X568949*
X581649Y325120D02*
Y317500D01*
X577839*
X576569Y318770*
Y321310*
X577839Y322580*
X581649*
X596879D02*
X593079D01*
X591809Y321310*
Y318770*
X593079Y317500*
X596879*
X600689D02*
X603229D01*
X604499Y318770*
Y321310*
X603229Y322580*
X600689*
X599419Y321310*
Y318770*
X600689Y317500*
X607039D02*
Y322580D01*
X610849*
X612119Y321310*
Y317500*
X615929Y323850D02*
Y322580D01*
X614659*
X617199*
X615929*
Y318770*
X617199Y317500*
X621009Y322580D02*
Y317500D01*
Y320040*
X622279Y321310*
X623549Y322580*
X624819*
X629889D02*
X632429D01*
X633699Y321310*
Y317500*
X629889*
X628619Y318770*
X629889Y320040*
X633699*
X636239Y317500D02*
X640049D01*
X641319Y318770*
X640049Y320040*
X637509*
X636239Y321310*
X637509Y322580*
X641319*
X645129Y323850D02*
Y322580D01*
X643859*
X646399*
X645129*
Y318770*
X646399Y317500*
X670560Y300990D02*
Y307759D01*
X667179Y304379D02*
X673949D01*
X730250Y276860D02*
Y274320D01*
X728980Y273050*
X726440*
X725170Y274320*
Y276860*
X726440Y278130*
X727710*
Y273050*
X730250Y285750D02*
Y280670D01*
X725170Y285750*
X723900*
X722630Y284480*
Y281940*
X723900Y280670*
X725170Y307340D02*
Y303530D01*
X726440Y302260*
X728980*
X730250Y303530*
Y307340*
X725170Y325120D02*
X730250D01*
X727710*
X726440Y326390*
X725170Y327660*
Y328930*
X730250Y332740D02*
Y336550D01*
X728980Y337820*
X727710Y336550*
Y334010*
X726440Y332740*
X725170Y334010*
Y337820*
X666750Y328930D02*
X673519D01*
X668020Y349250D02*
X673100D01*
X670560*
X669290Y350520*
X668020Y351790*
Y353060*
Y356870D02*
X671830D01*
X673100Y358140*
X671830Y359410*
X673100Y360680*
X671830Y361950*
X668020*
X730250Y354330D02*
Y351790D01*
X728980Y350520*
X726440*
X725170Y351790*
Y354330*
X726440Y355600*
X727710*
Y350520*
X730250Y358140D02*
Y360680D01*
Y359410*
X722630*
X723900Y358140*
X722630Y430530D02*
X730250D01*
Y426720*
X728980Y425450*
X726440*
X725170Y426720*
Y430530*
X722630Y438150D02*
Y433070D01*
X726440*
X725170Y435610*
Y436880*
X726440Y438150*
X728980*
X730250Y436880*
Y434340*
X728980Y433070*
X722630Y457200D02*
X730250D01*
Y453390*
X728980Y452120*
X726440*
X725170Y453390*
Y457200*
X722630Y459740D02*
Y464820D01*
X723900*
X728980Y459740*
X730250*
X665480Y430530D02*
X673100D01*
Y426720*
X671830Y425450*
X669290*
X668020Y426720*
Y430530*
X673100Y436880D02*
X665480D01*
X669290Y433070*
Y438150*
X665480Y454660D02*
X673100D01*
Y450850*
X671830Y449580*
X669290*
X668020Y450850*
Y454660*
X665480Y462280D02*
X666750Y459740D01*
X669290Y457200*
X671830*
X673100Y458470*
Y461010*
X671830Y462280*
X670560*
X669290Y461010*
Y457200*
X350520Y360680D02*
X345440D01*
Y356870*
X347980Y358140*
X349250*
X350520Y356870*
Y354330*
X349250Y353060*
X346710*
X345440Y354330*
X353060Y360680D02*
Y355600D01*
X355600Y353060*
X358140Y355600*
Y360680*
X350520Y334010D02*
X349250Y335280D01*
X346710*
X345440Y334010*
Y328930*
X346710Y327660*
X349250*
X350520Y328930*
Y331470*
X347980*
X353060Y327660D02*
Y335280D01*
X358140Y327660*
Y335280*
X360680D02*
Y327660D01*
X364479*
X365749Y328930*
Y334010*
X364479Y335280*
X360680*
X438209Y412750D02*
Y417830D01*
X440749Y420370*
X443279Y417830*
Y412750*
Y416560*
X438209*
X445819Y417830D02*
Y412750D01*
Y415290*
X447089Y416560*
X448359Y417830*
X449629*
X458519Y420370D02*
Y412750D01*
X454709*
X453439Y414020*
Y416560*
X454709Y417830*
X458519*
X461059D02*
Y414020D01*
X462329Y412750*
X466139*
Y417830*
X468679Y412750D02*
X471219D01*
X469949*
Y417830*
X468679*
X475019Y412750D02*
Y417830D01*
X478829*
X480099Y416560*
Y412750*
X483909D02*
X486449D01*
X487719Y414020*
Y416560*
X486449Y417830*
X483909*
X482639Y416560*
Y414020*
X483909Y412750*
X497879D02*
Y420370D01*
X502959Y412750*
Y420370*
X506759Y417830D02*
X509299D01*
X510569Y416560*
Y412750*
X506759*
X505489Y414020*
X506759Y415290*
X510569*
X513109Y412750D02*
Y417830D01*
X516919*
X518189Y416560*
Y412750*
X521999D02*
X524539D01*
X525809Y414020*
Y416560*
X524539Y417830*
X521999*
X520729Y416560*
Y414020*
X521999Y412750*
X539769D02*
Y420370D01*
X535959Y416560*
X541039*
X543579Y417830D02*
X548659Y412750D01*
X546119Y415290*
X548659Y417830*
X543579Y412750*
X555009D02*
Y420370D01*
X551199Y416560*
X556279*
X558819Y419100D02*
X560089Y420370D01*
X562629*
X563899Y419100*
Y414020*
X562629Y412750*
X560089*
X558819Y414020*
Y419100*
X566429Y420370D02*
Y412750D01*
X571509*
X579129Y419100D02*
X577859Y420370D01*
X575319*
X574049Y419100*
Y414020*
X575319Y412750*
X577859*
X579129Y414020*
X581669Y420370D02*
Y412750D01*
X585479*
X586749Y414020*
Y419100*
X585479Y420370*
X581669*
X596900Y412750D02*
X600710D01*
X601980Y414020*
X600710Y415290*
X598170*
X596900Y416560*
X598170Y417830*
X601980*
X604520Y420370D02*
Y412750D01*
Y416560*
X605790Y417830*
X608330*
X609600Y416560*
Y412750*
X612140D02*
X614680D01*
X613410*
Y417830*
X612140*
X622300Y412750D02*
X619760D01*
X618490Y414020*
Y416560*
X619760Y417830*
X622300*
X623570Y416560*
Y415290*
X618490*
X626110Y412750D02*
X628639D01*
X627380*
Y420370*
X626110*
X637529D02*
Y412750D01*
X633719*
X632449Y414020*
Y416560*
X633719Y417830*
X637529*
X631449Y264999D02*
X639569D01*
Y260939*
X638219Y259589*
X635509*
X634159Y260939*
Y264999*
X639569Y267709D02*
Y270419D01*
Y269069*
X631449*
X632799Y267709*
X639569Y279899D02*
Y274479D01*
X634159Y279899*
X632799*
X631449Y278549*
Y275839*
X632799Y274479*
X630679Y461349D02*
X638810D01*
Y457279*
X637459Y455930*
X634749*
X633389Y457279*
Y461349*
X638810Y464059D02*
Y466759D01*
Y465409*
X630679*
X632039Y464059*
Y470829D02*
X630679Y472179D01*
Y474889*
X632039Y476239*
X633389*
X634749Y474889*
Y473539*
Y474889*
X636099Y476239*
X637459*
X638810Y474889*
Y472179*
X637459Y470829*
X604009Y267039D02*
X612140D01*
Y262969*
X610789Y261620*
X608079*
X606719Y262969*
Y267039*
X612140Y269749D02*
Y272449D01*
Y271099*
X604009*
X605369Y269749*
X612140Y276519D02*
Y279229D01*
Y277869*
X604009*
X605369Y276519*
X606639Y455930D02*
X605279Y457279D01*
Y459989*
X606639Y461349*
X607989*
X609349Y459989*
Y458639*
Y459989*
X610699Y461349*
X612059*
X613410Y459989*
Y457279*
X612059Y455930*
X613410Y464059D02*
X612059D01*
Y465409*
X613410*
Y464059*
X606639Y470829D02*
X605279Y472179D01*
Y474889*
X606639Y476239*
X607989*
X609349Y474889*
Y473539*
Y474889*
X610699Y476239*
X612059*
X613410Y474889*
Y472179*
X612059Y470829*
X578609Y267039D02*
X586740D01*
Y262969*
X585389Y261620*
X582679*
X581319Y262969*
Y267039*
X586740Y269749D02*
Y272449D01*
Y271099*
X578609*
X579969Y269749*
Y276519D02*
X578609Y277869D01*
Y280579*
X579969Y281929*
X585389*
X586740Y280579*
Y277869*
X585389Y276519*
X579969*
X582589Y455930D02*
X588010D01*
X585299*
X583949Y457279*
X582589Y458639*
Y459989*
X588010Y468119D02*
Y465409D01*
X586659Y464059*
X583949*
X582589Y465409*
Y468119*
X583949Y469469*
X585299*
Y464059*
X588010Y473539D02*
X581239D01*
X583949*
Y472179*
Y474889*
Y473539*
X581239*
X579879Y474889*
X553209Y267039D02*
X561340D01*
Y262969*
X559989Y261620*
X557279*
X555919Y262969*
Y267039*
X559989Y269749D02*
X561340Y271099D01*
Y273809*
X559989Y275159*
X554569*
X553209Y273809*
Y271099*
X554569Y269749*
X555919*
X557279Y271099*
Y275159*
X557189Y462359D02*
Y465069D01*
X558549Y466429*
X562610*
Y462359*
X561259Y461010*
X559899Y462359*
Y466429*
X555839Y469139D02*
X554479Y470489D01*
Y473199*
X555839Y474549*
X561259*
X562610Y473199*
Y470489*
X561259Y469139*
X555839*
X527809Y267039D02*
X535940D01*
Y262969*
X534589Y261620*
X531879*
X530519Y262969*
Y267039*
X529169Y269749D02*
X527809Y271099D01*
Y273809*
X529169Y275159*
X530519*
X531879Y273809*
X533229Y275159*
X534589*
X535940Y273809*
Y271099*
X534589Y269749*
X533229*
X531879Y271099*
X530519Y269749*
X529169*
X531879Y271099D02*
Y273809D01*
X531789Y462359D02*
Y465069D01*
X533149Y466429*
X537210*
Y462359*
X535859Y461010*
X534499Y462359*
Y466429*
X537210Y469139D02*
Y471839D01*
Y470489*
X529079*
X530439Y469139*
X502409Y267039D02*
X510540D01*
Y262969*
X509189Y261620*
X506479*
X505119Y262969*
Y267039*
X502409Y269749D02*
Y275159D01*
X503769*
X509189Y269749*
X510540*
X506389Y462359D02*
Y465069D01*
X507749Y466429*
X511810*
Y462359*
X510459Y461010*
X509099Y462359*
Y466429*
X511810Y474549D02*
Y469139D01*
X506389Y474549*
X505039*
X503679Y473199*
Y470489*
X505039Y469139*
X477009Y267039D02*
X485140D01*
Y262969*
X483789Y261620*
X481079*
X479719Y262969*
Y267039*
X477009Y275159D02*
X478369Y272449D01*
X481079Y269749*
X483789*
X485140Y271099*
Y273809*
X483789Y275159*
X482429*
X481079Y273809*
Y269749*
X480989Y462359D02*
Y465069D01*
X482349Y466429*
X486410*
Y462359*
X485059Y461010*
X483699Y462359*
Y466429*
X479639Y469139D02*
X478279Y470489D01*
Y473199*
X479639Y474549*
X480989*
X482349Y473199*
Y471839*
Y473199*
X483699Y474549*
X485059*
X486410Y473199*
Y470489*
X485059Y469139*
X451609Y267039D02*
X459740D01*
Y262969*
X458389Y261620*
X455679*
X454319Y262969*
Y267039*
X451609Y275159D02*
Y269749D01*
X455679*
X454319Y272449*
Y273809*
X455679Y275159*
X458389*
X459740Y273809*
Y271099*
X458389Y269749*
X455589Y462359D02*
Y465069D01*
X456949Y466429*
X461010*
Y462359*
X459659Y461010*
X458299Y462359*
Y466429*
X461010Y473199D02*
X452879D01*
X456949Y469139*
Y474549*
X426209Y267039D02*
X434340D01*
Y262969*
X432989Y261620*
X430279*
X428919Y262969*
Y267039*
X434340Y273809D02*
X426209D01*
X430279Y269749*
Y275159*
X430189Y462359D02*
Y465069D01*
X431549Y466429*
X435610*
Y462359*
X434259Y461010*
X432899Y462359*
Y466429*
X427479Y474549D02*
Y469139D01*
X431549*
X430189Y471839*
Y473199*
X431549Y474549*
X434259*
X435610Y473199*
Y470489*
X434259Y469139*
X400809Y267039D02*
X408940D01*
Y262969*
X407589Y261620*
X404879*
X403519Y262969*
Y267039*
X402169Y269749D02*
X400809Y271099D01*
Y273809*
X402169Y275159*
X403519*
X404879Y273809*
Y272449*
Y273809*
X406229Y275159*
X407589*
X408940Y273809*
Y271099*
X407589Y269749*
X404789Y462359D02*
Y465069D01*
X406149Y466429*
X410210*
Y462359*
X408859Y461010*
X407499Y462359*
Y466429*
X402079Y474549D02*
X403439Y471839D01*
X406149Y469139*
X408859*
X410210Y470489*
Y473199*
X408859Y474549*
X407499*
X406149Y473199*
Y469139*
X375409Y267039D02*
X383540D01*
Y262969*
X382189Y261620*
X379479*
X378119Y262969*
Y267039*
X383540Y275159D02*
Y269749D01*
X378119Y275159*
X376769*
X375409Y273809*
Y271099*
X376769Y269749*
X379389Y462359D02*
Y465069D01*
X380749Y466429*
X384810*
Y462359*
X383459Y461010*
X382099Y462359*
Y466429*
X376679Y469139D02*
Y474549D01*
X378039*
X383459Y469139*
X384810*
X360849Y264329D02*
Y265679D01*
X359489Y267039*
X352719*
Y262969*
X354079Y261620*
X356789*
X358140Y262969*
Y267039*
Y269749D02*
X352719D01*
Y273809*
X354079Y275159*
X358140*
X350009Y283289D02*
X358140D01*
Y279229*
X356789Y277869*
X354079*
X352719Y279229*
Y283289*
X351279Y466429D02*
Y461010D01*
X355349*
X353989Y463719*
Y465069*
X355349Y466429*
X358059*
X359410Y465069*
Y462359*
X358059Y461010*
X353989Y469139D02*
X359410Y471839D01*
X353989Y474549*
X327319Y261620D02*
X332740D01*
X330029*
X328679Y262969*
X327319Y264329*
Y265679*
X332740Y269749D02*
Y273809D01*
X331389Y275159*
X330029Y273809*
Y271099*
X328679Y269749*
X327319Y271099*
Y275159*
X325969Y279229D02*
X327319D01*
Y277869*
Y280579*
Y279229*
X331389*
X332740Y280579*
X328589Y455930D02*
X334010D01*
X331299*
X329949Y457279*
X328589Y458639*
Y459989*
X334010Y464059D02*
Y468119D01*
X332659Y469469*
X331299Y468119*
Y465409*
X329949Y464059*
X328589Y465409*
Y469469*
X327239Y473539D02*
X328589D01*
Y472179*
Y474889*
Y473539*
X332659*
X334010Y474889*
X302260Y261620D02*
X307340D01*
X304800*
X303530Y262890*
X302260Y264160*
Y265430*
Y269240D02*
X307340Y274320D01*
X304800Y271780*
X302260Y274320*
X307340Y269240*
X300990Y276860D02*
X299720Y278119D01*
Y280659*
X300990Y281929*
X306070*
X307340Y280659*
Y278119*
X306070Y276860*
X300990*
X311150Y458470D02*
Y459740D01*
X309880Y461010*
X303530*
Y457200*
X304800Y455930*
X307340*
X308610Y457200*
Y461010*
Y463550D02*
X303530D01*
Y467360*
X304800Y468630*
X308610*
X300990Y476239D02*
X308610D01*
Y472429*
X307340Y471170*
X304800*
X303530Y472429*
Y476239*
X278130Y455930D02*
X283210Y458470D01*
X278130Y461010*
X283210Y463550D02*
Y466090D01*
Y464820*
X278130*
Y463550*
X283210Y469900D02*
X278130D01*
Y473699*
X279400Y474969*
X283210*
X275590Y262890D02*
X276860D01*
Y261620*
Y264160*
Y262890*
X280670*
X281940Y264160*
X276860Y267970D02*
X281940Y273050D01*
X279400Y270510*
X276860Y273050*
X281940Y267970*
Y275590D02*
Y278119D01*
Y276860*
X274320*
X275590Y275590*
X546979Y396240D02*
Y403860D01*
X550779*
X552049Y402590*
Y400050*
X550779Y398780*
X546979*
X554589Y403860D02*
Y396240D01*
X557129Y398780*
X559669Y396240*
Y403860*
X562209Y396240D02*
Y403860D01*
X564749Y401320*
X567289Y403860*
Y396240*
X577449Y403860D02*
Y396240D01*
X581259*
X582519Y397510*
Y398780*
Y400050*
X581259Y401320*
X577449*
X586329D02*
X588869D01*
X590139Y400050*
Y396240*
X586329*
X585059Y397510*
X586329Y398780*
X590139*
X597759Y401320D02*
X593949D01*
X592679Y400050*
Y397510*
X593949Y396240*
X597759*
X600299D02*
Y403860D01*
Y398780D02*
X604109Y401320D01*
X600299Y398780D02*
X604109Y396240D01*
X607919D02*
X610459D01*
X609189*
Y403860*
X607919*
X614259Y396240D02*
X616799D01*
X615529*
Y401320*
X614259*
X623149Y393700D02*
X624419D01*
X625689Y394970*
Y401320*
X621879*
X620609Y400050*
Y397510*
X621879Y396240*
X625689*
X628229Y403860D02*
Y396240D01*
Y400050*
X629499Y401320*
X632039*
X633309Y400050*
Y396240*
X637119Y402590D02*
Y401320D01*
X635849*
X638389*
X637119*
Y397510*
X638389Y396240*
X586339Y379730D02*
X581269D01*
X586339Y384810*
Y386080*
X585069Y387350*
X582539*
X581269Y386080*
X588879D02*
X590149Y387350D01*
X592689*
X593959Y386080*
Y381000*
X592689Y379730*
X590149*
X588879Y381000*
Y386080*
X596499Y379730D02*
X599039D01*
X597769*
Y387350*
X596499Y386080*
X607929Y387350D02*
X602849D01*
Y383540*
X605389Y384810*
X606659*
X607929Y383540*
Y381000*
X606659Y379730*
X604119*
X602849Y381000*
X618079Y379730D02*
Y387350D01*
X623159Y379730*
Y387350*
X626969Y384810D02*
X629509D01*
X630779Y383540*
Y379730*
X626969*
X625699Y381000*
X626969Y382270*
X630779*
X638399Y387350D02*
Y379730D01*
X634589*
X633319Y381000*
Y383540*
X634589Y384810*
X638399*
X598170Y368300D02*
Y363220D01*
Y365760*
X599440Y367030*
X600710Y368300*
X601980*
X609600Y363220D02*
X607060D01*
X605790Y364490*
Y367030*
X607060Y368300*
X609600*
X610870Y367030*
Y365760*
X605790*
X613410Y368300D02*
X615939Y363220D01*
X618479Y368300*
X621019Y363220D02*
X623559D01*
X622289*
Y370840*
X621019Y369570*
X627369Y363220D02*
Y364490D01*
X628639*
Y363220*
X627369*
X637529D02*
Y370840D01*
X633719Y367030*
X638799*
X487680Y562579D02*
X483870D01*
X482600Y561309*
Y558769*
X483870Y557499*
X487680*
X491490D02*
X494030D01*
X495300Y558769*
Y561309*
X494030Y562579*
X491490*
X490220Y561309*
Y558769*
X491490Y557499*
X497840D02*
Y562579D01*
X501639*
X502909Y561309*
Y557499*
X506719Y563849D02*
Y562579D01*
X505449*
X507989*
X506719*
Y558769*
X507989Y557499*
X511799Y562579D02*
Y557499D01*
Y560039*
X513069Y561309*
X514339Y562579*
X515609*
X520689D02*
X523229D01*
X524499Y561309*
Y557499*
X520689*
X519419Y558769*
X520689Y560039*
X524499*
X527039Y557499D02*
X530839D01*
X532109Y558769*
X530839Y560039*
X528309*
X527039Y561309*
X528309Y562579*
X532109*
X535919Y563849D02*
Y562579D01*
X534649*
X537189*
X535919*
Y558769*
X537189Y557499*
X654050Y576549D02*
X646430D01*
Y580359*
X647700Y581629*
X650240*
X651510Y580359*
Y576549*
Y579089D02*
X654050Y581629D01*
X650240Y584169D02*
Y589249D01*
X647700Y586709D02*
X652780D01*
X548640Y576549D02*
X541020D01*
Y580359*
X542290Y581629*
X544830*
X546100Y580359*
Y576549*
Y579089D02*
X548640Y581629D01*
X544830Y584169D02*
Y589249D01*
X410210Y647669D02*
Y652749D01*
X408940Y654019*
X406400*
X405130Y652749*
Y647669*
X406400Y646399*
X408940*
X407670Y648939D02*
X410210Y646399D01*
X408940D02*
X410210Y647669D01*
X345440Y643859D02*
Y648939D01*
X347980Y651479*
X350520Y648939*
Y643859*
Y647669*
X345440*
X353060D02*
X358140D01*
X355600Y650209D02*
Y645129D01*
X346710Y624809D02*
Y617189D01*
Y619729*
X351790Y624809*
X347980Y620999*
X351790Y617189*
X354330Y620999D02*
X359410D01*
X549910Y557499D02*
Y563849D01*
Y561309*
X548640*
X551180*
X549910*
Y563849*
X551180Y565119*
X554990Y557499D02*
X557530D01*
X556260*
Y562579*
X554990*
X561340D02*
X566409Y557499D01*
X563880Y560039*
X566409Y562579*
X561340Y557499*
X572759D02*
X570219D01*
X568949Y558769*
Y561309*
X570219Y562579*
X572759*
X574029Y561309*
Y560039*
X568949*
X581649Y565119D02*
Y557499D01*
X577839*
X576569Y558769*
Y561309*
X577839Y562579*
X581649*
X596879D02*
X593079D01*
X591809Y561309*
Y558769*
X593079Y557499*
X596879*
X600689D02*
X603229D01*
X604499Y558769*
Y561309*
X603229Y562579*
X600689*
X599419Y561309*
Y558769*
X600689Y557499*
X607039D02*
Y562579D01*
X610849*
X612119Y561309*
Y557499*
X615929Y563849D02*
Y562579D01*
X614659*
X617199*
X615929*
Y558769*
X617199Y557499*
X621009Y562579D02*
Y557499D01*
Y560039*
X622279Y561309*
X623549Y562579*
X624819*
X629889D02*
X632429D01*
X633699Y561309*
Y557499*
X629889*
X628619Y558769*
X629889Y560039*
X633699*
X636239Y557499D02*
X640049D01*
X641319Y558769*
X640049Y560039*
X637509*
X636239Y561309*
X637509Y562579*
X641319*
X645129Y563849D02*
Y562579D01*
X643859*
X646399*
X645129*
Y558769*
X646399Y557499*
X670560Y540989D02*
Y547759D01*
X667179Y544379D02*
X673949D01*
X730250Y516859D02*
Y514319D01*
X728980Y513049*
X726440*
X725170Y514319*
Y516859*
X726440Y518129*
X727710*
Y513049*
X730250Y525749D02*
Y520669D01*
X725170Y525749*
X723900*
X722630Y524479*
Y521939*
X723900Y520669*
X725170Y547339D02*
Y543529D01*
X726440Y542259*
X728980*
X730250Y543529*
Y547339*
X725170Y565119D02*
X730250D01*
X727710*
X726440Y566389*
X725170Y567659*
Y568929*
X730250Y572739D02*
Y576549D01*
X728980Y577819*
X727710Y576549*
Y574009*
X726440Y572739*
X725170Y574009*
Y577819*
X666750Y568929D02*
X673519D01*
X668020Y589249D02*
X673100D01*
X670560*
X669290Y590519*
X668020Y591789*
Y593059*
Y596869D02*
X671830D01*
X673100Y598139*
X671830Y599409*
X673100Y600679*
X671830Y601949*
X668020*
X730250Y594329D02*
Y591789D01*
X728980Y590519*
X726440*
X725170Y591789*
Y594329*
X726440Y595599*
X727710*
Y590519*
X730250Y598139D02*
Y600679D01*
Y599409*
X722630*
X723900Y598139*
X722630Y670529D02*
X730250D01*
Y666719*
X728980Y665449*
X726440*
X725170Y666719*
Y670529*
X722630Y678149D02*
Y673069D01*
X726440*
X725170Y675609*
Y676879*
X726440Y678149*
X728980*
X730250Y676879*
Y674339*
X728980Y673069*
X722630Y697199D02*
X730250D01*
Y693389*
X728980Y692119*
X726440*
X725170Y693389*
Y697199*
X722630Y699739D02*
Y704819D01*
X723900*
X728980Y699739*
X730250*
X665480Y670529D02*
X673100D01*
Y666719*
X671830Y665449*
X669290*
X668020Y666719*
Y670529*
X673100Y676879D02*
X665480D01*
X669290Y673069*
Y678149*
X665480Y694659D02*
X673100D01*
Y690849*
X671830Y689579*
X669290*
X668020Y690849*
Y694659*
X665480Y702279D02*
X666750Y699739D01*
X669290Y697199*
X671830*
X673100Y698469*
Y701009*
X671830Y702279*
X670560*
X669290Y701009*
Y697199*
X350520Y600679D02*
X345440D01*
Y596869*
X347980Y598139*
X349250*
X350520Y596869*
Y594329*
X349250Y593059*
X346710*
X345440Y594329*
X353060Y600679D02*
Y595599D01*
X355600Y593059*
X358140Y595599*
Y600679*
X350520Y574009D02*
X349250Y575279D01*
X346710*
X345440Y574009*
Y568929*
X346710Y567659*
X349250*
X350520Y568929*
Y571469*
X347980*
X353060Y567659D02*
Y575279D01*
X358140Y567659*
Y575279*
X360680D02*
Y567659D01*
X364479*
X365749Y568929*
Y574009*
X364479Y575279*
X360680*
X438209Y652749D02*
Y657829D01*
X440749Y660369*
X443279Y657829*
Y652749*
Y656559*
X438209*
X445819Y657829D02*
Y652749D01*
Y655289*
X447089Y656559*
X448359Y657829*
X449629*
X458519Y660369D02*
Y652749D01*
X454709*
X453439Y654019*
Y656559*
X454709Y657829*
X458519*
X461059D02*
Y654019D01*
X462329Y652749*
X466139*
Y657829*
X468679Y652749D02*
X471219D01*
X469949*
Y657829*
X468679*
X475019Y652749D02*
Y657829D01*
X478829*
X480099Y656559*
Y652749*
X483909D02*
X486449D01*
X487719Y654019*
Y656559*
X486449Y657829*
X483909*
X482639Y656559*
Y654019*
X483909Y652749*
X497879D02*
Y660369D01*
X502959Y652749*
Y660369*
X506759Y657829D02*
X509299D01*
X510569Y656559*
Y652749*
X506759*
X505489Y654019*
X506759Y655289*
X510569*
X513109Y652749D02*
Y657829D01*
X516919*
X518189Y656559*
Y652749*
X521999D02*
X524539D01*
X525809Y654019*
Y656559*
X524539Y657829*
X521999*
X520729Y656559*
Y654019*
X521999Y652749*
X539769D02*
Y660369D01*
X535959Y656559*
X541039*
X543579Y657829D02*
X548659Y652749D01*
X546119Y655289*
X548659Y657829*
X543579Y652749*
X555009D02*
Y660369D01*
X551199Y656559*
X556279*
X558819Y659099D02*
X560089Y660369D01*
X562629*
X563899Y659099*
Y654019*
X562629Y652749*
X560089*
X558819Y654019*
Y659099*
X566429Y660369D02*
Y652749D01*
X571509*
X579129Y659099D02*
X577859Y660369D01*
X575319*
X574049Y659099*
Y654019*
X575319Y652749*
X577859*
X579129Y654019*
X581669Y660369D02*
Y652749D01*
X585479*
X586749Y654019*
Y659099*
X585479Y660369*
X581669*
X596900Y652749D02*
X600710D01*
X601980Y654019*
X600710Y655289*
X598170*
X596900Y656559*
X598170Y657829*
X601980*
X604520Y660369D02*
Y652749D01*
Y656559*
X605790Y657829*
X608330*
X609600Y656559*
Y652749*
X612140D02*
X614680D01*
X613410*
Y657829*
X612140*
X622300Y652749D02*
X619760D01*
X618490Y654019*
Y656559*
X619760Y657829*
X622300*
X623570Y656559*
Y655289*
X618490*
X626110Y652749D02*
X628639D01*
X627380*
Y660369*
X626110*
X637529D02*
Y652749D01*
X633719*
X632449Y654019*
Y656559*
X633719Y657829*
X637529*
X631449Y504999D02*
X639569D01*
Y500939*
X638219Y499589*
X635509*
X634159Y500939*
Y504999*
X639569Y507709D02*
Y510419D01*
Y509069*
X631449*
X632799Y507709*
X639569Y519899D02*
Y514479D01*
X634159Y519899*
X632799*
X631449Y518549*
Y515839*
X632799Y514479*
X630679Y701349D02*
X638810D01*
Y697279*
X637459Y695929*
X634749*
X633389Y697279*
Y701349*
X638810Y704059D02*
Y706759D01*
Y705409*
X630679*
X632039Y704059*
Y710829D02*
X630679Y712179D01*
Y714889*
X632039Y716239*
X633389*
X634749Y714889*
Y713539*
Y714889*
X636099Y716239*
X637459*
X638810Y714889*
Y712179*
X637459Y710829*
X604009Y507039D02*
X612140D01*
Y502969*
X610789Y501619*
X608079*
X606719Y502969*
Y507039*
X612140Y509749D02*
Y512449D01*
Y511099*
X604009*
X605369Y509749*
X612140Y516519D02*
Y519229D01*
Y517869*
X604009*
X605369Y516519*
X606639Y695929D02*
X605279Y697279D01*
Y699989*
X606639Y701349*
X607989*
X609349Y699989*
Y698639*
Y699989*
X610699Y701349*
X612059*
X613410Y699989*
Y697279*
X612059Y695929*
X613410Y704059D02*
X612059D01*
Y705409*
X613410*
Y704059*
X606639Y710829D02*
X605279Y712179D01*
Y714889*
X606639Y716239*
X607989*
X609349Y714889*
Y713539*
Y714889*
X610699Y716239*
X612059*
X613410Y714889*
Y712179*
X612059Y710829*
X578609Y507039D02*
X586740D01*
Y502969*
X585389Y501619*
X582679*
X581319Y502969*
Y507039*
X586740Y509749D02*
Y512449D01*
Y511099*
X578609*
X579969Y509749*
Y516519D02*
X578609Y517869D01*
Y520579*
X579969Y521929*
X585389*
X586740Y520579*
Y517869*
X585389Y516519*
X579969*
X582589Y695929D02*
X588010D01*
X585299*
X583949Y697279*
X582589Y698639*
Y699989*
X588010Y708119D02*
Y705409D01*
X586659Y704059*
X583949*
X582589Y705409*
Y708119*
X583949Y709469*
X585299*
Y704059*
X588010Y713539D02*
X581239D01*
X583949*
Y712179*
Y714889*
Y713539*
X581239*
X579879Y714889*
X553209Y507039D02*
X561340D01*
Y502969*
X559989Y501619*
X557279*
X555919Y502969*
Y507039*
X559989Y509749D02*
X561340Y511099D01*
Y513809*
X559989Y515159*
X554569*
X553209Y513809*
Y511099*
X554569Y509749*
X555919*
X557279Y511099*
Y515159*
X557189Y702359D02*
Y705069D01*
X558549Y706429*
X562610*
Y702359*
X561259Y701009*
X559899Y702359*
Y706429*
X555839Y709139D02*
X554479Y710489D01*
Y713199*
X555839Y714549*
X561259*
X562610Y713199*
Y710489*
X561259Y709139*
X555839*
X527809Y507039D02*
X535940D01*
Y502969*
X534589Y501619*
X531879*
X530519Y502969*
Y507039*
X529169Y509749D02*
X527809Y511099D01*
Y513809*
X529169Y515159*
X530519*
X531879Y513809*
X533229Y515159*
X534589*
X535940Y513809*
Y511099*
X534589Y509749*
X533229*
X531879Y511099*
X530519Y509749*
X529169*
X531879Y511099D02*
Y513809D01*
X531789Y702359D02*
Y705069D01*
X533149Y706429*
X537210*
Y702359*
X535859Y701009*
X534499Y702359*
Y706429*
X537210Y709139D02*
Y711839D01*
Y710489*
X529079*
X530439Y709139*
X502409Y507039D02*
X510540D01*
Y502969*
X509189Y501619*
X506479*
X505119Y502969*
Y507039*
X502409Y509749D02*
Y515159D01*
X503769*
X509189Y509749*
X510540*
X506389Y702359D02*
Y705069D01*
X507749Y706429*
X511810*
Y702359*
X510459Y701009*
X509099Y702359*
Y706429*
X511810Y714549D02*
Y709139D01*
X506389Y714549*
X505039*
X503679Y713199*
Y710489*
X505039Y709139*
X477009Y507039D02*
X485140D01*
Y502969*
X483789Y501619*
X481079*
X479719Y502969*
Y507039*
X477009Y515159D02*
X478369Y512449D01*
X481079Y509749*
X483789*
X485140Y511099*
Y513809*
X483789Y515159*
X482429*
X481079Y513809*
Y509749*
X480989Y702359D02*
Y705069D01*
X482349Y706429*
X486410*
Y702359*
X485059Y701009*
X483699Y702359*
Y706429*
X479639Y709139D02*
X478279Y710489D01*
Y713199*
X479639Y714549*
X480989*
X482349Y713199*
Y711839*
Y713199*
X483699Y714549*
X485059*
X486410Y713199*
Y710489*
X485059Y709139*
X451609Y507039D02*
X459740D01*
Y502969*
X458389Y501619*
X455679*
X454319Y502969*
Y507039*
X451609Y515159D02*
Y509749D01*
X455679*
X454319Y512449*
Y513809*
X455679Y515159*
X458389*
X459740Y513809*
Y511099*
X458389Y509749*
X455589Y702359D02*
Y705069D01*
X456949Y706429*
X461010*
Y702359*
X459659Y701009*
X458299Y702359*
Y706429*
X461010Y713199D02*
X452879D01*
X456949Y709139*
Y714549*
X426209Y507039D02*
X434340D01*
Y502969*
X432989Y501619*
X430279*
X428919Y502969*
Y507039*
X434340Y513809D02*
X426209D01*
X430279Y509749*
Y515159*
X430189Y702359D02*
Y705069D01*
X431549Y706429*
X435610*
Y702359*
X434259Y701009*
X432899Y702359*
Y706429*
X427479Y714549D02*
Y709139D01*
X431549*
X430189Y711839*
Y713199*
X431549Y714549*
X434259*
X435610Y713199*
Y710489*
X434259Y709139*
X400809Y507039D02*
X408940D01*
Y502969*
X407589Y501619*
X404879*
X403519Y502969*
Y507039*
X402169Y509749D02*
X400809Y511099D01*
Y513809*
X402169Y515159*
X403519*
X404879Y513809*
Y512449*
Y513809*
X406229Y515159*
X407589*
X408940Y513809*
Y511099*
X407589Y509749*
X404789Y702359D02*
Y705069D01*
X406149Y706429*
X410210*
Y702359*
X408859Y701009*
X407499Y702359*
Y706429*
X402079Y714549D02*
X403439Y711839D01*
X406149Y709139*
X408859*
X410210Y710489*
Y713199*
X408859Y714549*
X407499*
X406149Y713199*
Y709139*
X375409Y507039D02*
X383540D01*
Y502969*
X382189Y501619*
X379479*
X378119Y502969*
Y507039*
X383540Y515159D02*
Y509749D01*
X378119Y515159*
X376769*
X375409Y513809*
Y511099*
X376769Y509749*
X379389Y702359D02*
Y705069D01*
X380749Y706429*
X384810*
Y702359*
X383459Y701009*
X382099Y702359*
Y706429*
X376679Y709139D02*
Y714549D01*
X378039*
X383459Y709139*
X384810*
X360849Y504329D02*
Y505679D01*
X359489Y507039*
X352719*
Y502969*
X354079Y501619*
X356789*
X358140Y502969*
Y507039*
Y509749D02*
X352719D01*
Y513809*
X354079Y515159*
X358140*
X350009Y523289D02*
X358140D01*
Y519229*
X356789Y517869*
X354079*
X352719Y519229*
Y523289*
X351279Y706429D02*
Y701009D01*
X355349*
X353989Y703719*
Y705069*
X355349Y706429*
X358059*
X359410Y705069*
Y702359*
X358059Y701009*
X353989Y709139D02*
X359410Y711839D01*
X353989Y714549*
X327319Y501619D02*
X332740D01*
X330029*
X328679Y502969*
X327319Y504329*
Y505679*
X332740Y509749D02*
Y513809D01*
X331389Y515159*
X330029Y513809*
Y511099*
X328679Y509749*
X327319Y511099*
Y515159*
X325969Y519229D02*
X327319D01*
Y517869*
Y520579*
Y519229*
X331389*
X332740Y520579*
X328589Y695929D02*
X334010D01*
X331299*
X329949Y697279*
X328589Y698639*
Y699989*
X334010Y704059D02*
Y708119D01*
X332659Y709469*
X331299Y708119*
Y705409*
X329949Y704059*
X328589Y705409*
Y709469*
X327239Y713539D02*
X328589D01*
Y712179*
Y714889*
Y713539*
X332659*
X334010Y714889*
X302260Y501619D02*
X307340D01*
X304800*
X303530Y502889*
X302260Y504159*
Y505429*
Y509239D02*
X307340Y514319D01*
X304800Y511779*
X302260Y514319*
X307340Y509239*
X300990Y516859D02*
X299720Y518119D01*
Y520659*
X300990Y521929*
X306070*
X307340Y520659*
Y518119*
X306070Y516859*
X300990*
X311150Y698469D02*
Y699739D01*
X309880Y701009*
X303530*
Y697199*
X304800Y695929*
X307340*
X308610Y697199*
Y701009*
Y703549D02*
X303530D01*
Y707359*
X304800Y708629*
X308610*
X300990Y716239D02*
X308610D01*
Y712429*
X307340Y711169*
X304800*
X303530Y712429*
Y716239*
X278130Y695929D02*
X283210Y698469D01*
X278130Y701009*
X283210Y703549D02*
Y706089D01*
Y704819*
X278130*
Y703549*
X283210Y709899D02*
X278130D01*
Y713699*
X279400Y714969*
X283210*
X275590Y502889D02*
X276860D01*
Y501619*
Y504159*
Y502889*
X280670*
X281940Y504159*
X276860Y507969D02*
X281940Y513049D01*
X279400Y510509*
X276860Y513049*
X281940Y507969*
Y515589D02*
Y518119D01*
Y516859*
X274320*
X275590Y515589*
X546979Y636239D02*
Y643859D01*
X550779*
X552049Y642589*
Y640049*
X550779Y638779*
X546979*
X554589Y643859D02*
Y636239D01*
X557129Y638779*
X559669Y636239*
Y643859*
X562209Y636239D02*
Y643859D01*
X564749Y641319*
X567289Y643859*
Y636239*
X577449Y643859D02*
Y636239D01*
X581259*
X582519Y637509*
Y638779*
Y640049*
X581259Y641319*
X577449*
X586329D02*
X588869D01*
X590139Y640049*
Y636239*
X586329*
X585059Y637509*
X586329Y638779*
X590139*
X597759Y641319D02*
X593949D01*
X592679Y640049*
Y637509*
X593949Y636239*
X597759*
X600299D02*
Y643859D01*
Y638779D02*
X604109Y641319D01*
X600299Y638779D02*
X604109Y636239D01*
X607919D02*
X610459D01*
X609189*
Y643859*
X607919*
X614259Y636239D02*
X616799D01*
X615529*
Y641319*
X614259*
X623149Y633699D02*
X624419D01*
X625689Y634969*
Y641319*
X621879*
X620609Y640049*
Y637509*
X621879Y636239*
X625689*
X628229Y643859D02*
Y636239D01*
Y640049*
X629499Y641319*
X632039*
X633309Y640049*
Y636239*
X637119Y642589D02*
Y641319D01*
X635849*
X638389*
X637119*
Y637509*
X638389Y636239*
X586339Y619729D02*
X581269D01*
X586339Y624809*
Y626079*
X585069Y627349*
X582539*
X581269Y626079*
X588879D02*
X590149Y627349D01*
X592689*
X593959Y626079*
Y620999*
X592689Y619729*
X590149*
X588879Y620999*
Y626079*
X596499Y619729D02*
X599039D01*
X597769*
Y627349*
X596499Y626079*
X607929Y627349D02*
X602849D01*
Y623539*
X605389Y624809*
X606659*
X607929Y623539*
Y620999*
X606659Y619729*
X604119*
X602849Y620999*
X618079Y619729D02*
Y627349D01*
X623159Y619729*
Y627349*
X626969Y624809D02*
X629509D01*
X630779Y623539*
Y619729*
X626969*
X625699Y620999*
X626969Y622269*
X630779*
X638399Y627349D02*
Y619729D01*
X634589*
X633319Y620999*
Y623539*
X634589Y624809*
X638399*
X598170Y608299D02*
Y603219D01*
Y605759*
X599440Y607029*
X600710Y608299*
X601980*
X609600Y603219D02*
X607060D01*
X605790Y604489*
Y607029*
X607060Y608299*
X609600*
X610870Y607029*
Y605759*
X605790*
X613410Y608299D02*
X615939Y603219D01*
X618479Y608299*
X621019Y603219D02*
X623559D01*
X622289*
Y610839*
X621019Y609569*
X627369Y603219D02*
Y604489D01*
X628639*
Y603219*
X627369*
X637529D02*
Y610839D01*
X633719Y607029*
X638799*
M02*